<svg xmlns="http://www.w3.org/2000/svg" xmlns:xlink="http://www.w3.org/1999/xlink" width="375" height="254" viewBox="0 0 375 254">
  <defs>
    <clipPath id="clip-path">
      <rect id="Rectangle_17140" data-name="Rectangle 17140" width="375" height="254" fill="#fff"/>
    </clipPath>
  </defs>
  <g id="Mask_Group_9" data-name="Mask Group 9" clip-path="url(#clip-path)">
    <g id="Group_16314" data-name="Group 16314" transform="translate(-870.8 -5138.059)">
      <path id="Path_2281" data-name="Path 2281" d="M376.317,37.595V315.878A256.991,256.991,0,0,1,269.341,378.04a259.346,259.346,0,0,1-71.558,10.119A256.406,256.406,0,0,1,15.874,312.5c-4.819-4.819-9.638-9.878-13.974-15.179V37.595a33.384,33.384,0,0,1,9.156-23.371A33.683,33.683,0,0,1,36.354,2.9H341.863a18.236,18.236,0,0,1,3.614.241h0a34.35,34.35,0,0,1,30.84,34.454" transform="translate(868.9 4999.159)" fill="#01579b"/>
      <path id="Path_2282" data-name="Path 2282" d="M79.713,381.413c0,.241.241.241.241.482a255.916,255.916,0,0,0,56.379,6.264h.723A249.429,249.429,0,0,1,81.4,381.895a4.467,4.467,0,0,0-1.687-.482M274.632,2.9h0c-107.7,0-198.773,71.077-228.891,168.9,0,.241-.241.482-.241.723.482-.241,1.2-.482,1.687-.723A239.162,239.162,0,0,1,314.868,246.97V37.354A34.714,34.714,0,0,0,283.787,2.9h-9.156" transform="translate(930.349 4999.159)" fill="#002e7f"/>
      <path id="Path_2283" data-name="Path 2283" d="M106.708,73.3A242.706,242.706,0,0,0,1.9,147.991v49.874c4.578,5.3,9.156,10.36,14.215,15.179A260.458,260.458,0,0,0,141.4,282.193a234.613,234.613,0,0,1-45.3-139.021,230.331,230.331,0,0,1,10.6-69.872" transform="translate(868.9 5098.379)" fill="#00358b"/>
      <path id="Path_2284" data-name="Path 2284" d="M134.443,67.2a238.7,238.7,0,0,0-81.2,14.215c-.482.241-1.2.482-1.687.723A239.625,239.625,0,0,0,85.773,291.031c.723.241,1.2.241,1.927.482a249.431,249.431,0,0,0,55.657,6.264,255.487,255.487,0,0,0,70.836-10.119A256.991,256.991,0,0,0,321.169,225.5V156.829A238.478,238.478,0,0,0,134.443,67.2" transform="translate(924.288 5089.782)" fill="#001c72"/>
    </g>
  </g>
</svg>
