<svg xmlns="http://www.w3.org/2000/svg" width="17.235" height="19.059" viewBox="0 0 17.235 19.059">
  <g id="bell" transform="translate(-43.5 470.074)">
    <path id="Path_1997" data-name="Path 1997" d="M51.245-469.978l-.373.073a6.352,6.352,0,0,0-2.161.921,7.788,7.788,0,0,0-1.618,1.626,6.378,6.378,0,0,0-.908,2.133,13.248,13.248,0,0,0-.109,2.311,8.407,8.407,0,0,1-.3,3.127,5.849,5.849,0,0,1-1.533,2.421c-.665.657-.738.8-.738,1.387a1.113,1.113,0,0,0,.109.633,1.605,1.605,0,0,0,1.123.848c.312.057,14.465.057,14.789,0a1.584,1.584,0,0,0,1.1-.844,1.113,1.113,0,0,0,.109-.633c0-.584-.081-.738-.7-1.35a5.63,5.63,0,0,1-1.046-1.294,5.809,5.809,0,0,1-.726-1.959,16.512,16.512,0,0,1-.1-2.332,12.285,12.285,0,0,0-.109-2.311,5.892,5.892,0,0,0-1.671-3.025,5.86,5.86,0,0,0-3.017-1.655l-.373-.073A4.1,4.1,0,0,0,51.245-469.978Z" transform="translate(0 0)" fill="#97a3b4"/>
    <path id="Path_1998" data-name="Path 1998" d="M178-63.939a3.79,3.79,0,0,0,.422,1.01,3.262,3.262,0,0,0,3.317,1.468,3.25,3.25,0,0,0,2.133-1.423,3.752,3.752,0,0,0,.454-1.046c0-.065-.178-.069-3.163-.069A18.133,18.133,0,0,0,178-63.939Z" transform="translate(-129.046 -389.607)" fill="#97a3b4"/>
  </g>
</svg>
