<svg id="blood-pressure_1_" data-name="blood-pressure (1)" xmlns="http://www.w3.org/2000/svg" xmlns:xlink="http://www.w3.org/1999/xlink" width="44.996" height="46.487" viewBox="0 0 44.996 46.487">
  <defs>
    <linearGradient id="linear-gradient" x1="0.5" x2="0.5" y2="1" gradientUnits="objectBoundingBox">
      <stop offset="0" stop-color="#2e2a91"/>
      <stop offset="1" stop-color="#212778"/>
    </linearGradient>
  </defs>
  <path id="Path_1964" data-name="Path 1964" d="M8-499.694v12.306h5.449v3.56c0,2.043.045,3.914.1,4.386a9.557,9.557,0,0,0,7.638,8.255c.59.127,1.517.145,6.1.145h5.395l.064.3a7.166,7.166,0,0,0,1.862,3.251,6.864,6.864,0,0,0,2.679,1.689l.727.254,3.86.027c4.35.027,4.6,0,5.867-.609a6.95,6.95,0,0,0,3.642-4.141,4.991,4.991,0,0,0,.245-2.134,4.99,4.99,0,0,0-.245-2.134,6.789,6.789,0,0,0-1.735-2.725,6.511,6.511,0,0,0-2.643-1.662l-.727-.245-3.86-.027c-4.314-.027-4.623,0-5.9.581a6.923,6.923,0,0,0-3.687,4.3l-.163.572-5.267-.036c-5.031-.036-5.313-.045-5.967-.227a6.932,6.932,0,0,1-4.741-4.35c-.372-1.035-.427-1.8-.427-5.622v-3.578l-.581-.727a8.833,8.833,0,0,1-1.517-2.652c-.572-1.58-.563-1.38-.6-8.074-.027-3.9,0-6.448.054-6.993a9.791,9.791,0,0,1,2.416-5.522l.427-.472H8Z" transform="translate(-8 512)" fill="url(#linear-gradient)"/>
  <path id="Path_1965" data-name="Path 1965" d="M103.429-511.864a6.914,6.914,0,0,0-3.378,1.989A6.983,6.983,0,0,0,98.207-506c-.073.518-.091,2.715-.073,6.848.036,6.012.036,6.094.245,6.766a7.479,7.479,0,0,0,2.28,3.506,8.031,8.031,0,0,0,2.407,1.253l.454.109.054,1.135a8.561,8.561,0,0,0,.173,1.5,4.329,4.329,0,0,0,2.243,2.606l.618.291,9.082.027c8.873.018,9.091.018,9.681-.164a4.4,4.4,0,0,0,1.925-1.3,7.526,7.526,0,0,0,.545-.954l.291-.608.027-3.515.027-3.515,1.335-1.117a34.463,34.463,0,0,0,3.923-3.76,8.083,8.083,0,0,0,1.326-2.443,6.032,6.032,0,0,0-.091-3.161,4.615,4.615,0,0,0-4.523-3.333,4.039,4.039,0,0,0-2.952,1.117l-.391.354-.4-.354a4.29,4.29,0,0,0-3.006-1.117,4.2,4.2,0,0,0-2.134.481,5.292,5.292,0,0,0-2.134,6.848c.581,1.271,1.971,2.8,4.6,5.04l1.626,1.39-.027,3.3-.027,3.3-.372.354a1.29,1.29,0,0,1-.863.409c-.272.027-4.123.045-8.573.027-7.919-.027-8.092-.027-8.4-.209-.5-.291-.727-.835-.727-1.744v-.754h8.174V-512l-5.331.009A45.963,45.963,0,0,0,103.429-511.864Zm.136,6.766v1.362h-2.634v-2.725h2.634Zm0,5.449v1.362h-2.634v-2.725h2.634Zm0,5.449v1.362h-2.634v-2.725h2.634Z" transform="translate(-89.943 512)" fill="url(#linear-gradient)"/>
</svg>
