<svg xmlns="http://www.w3.org/2000/svg" width="11" height="10.972" viewBox="0 0 11 10.972">
  <path id="bpSysDys" d="M7.444,6.552a.464.464,0,0,0-.238-.386V5.423a.238.238,0,1,0-.476,0v.743a.464.464,0,0,0-.238.386A.438.438,0,0,0,6.939,7,.514.514,0,0,0,7.444,6.552ZM10.892,1.5a1.7,1.7,0,0,0-1.6,1.813v.03c0,.743.565,2.051,1.367,2.259V9.97A2.055,2.055,0,0,1,8.6,12.021a2.032,2.032,0,0,1-2.051-1.932C7.266,10,7.92,9.822,7.92,9.495V8.6a2.278,2.278,0,0,0,1.189-3A2.32,2.32,0,0,0,7.92,4.413V3.1c0-.654-2.675-.684-3.21-.684S1.5,2.451,1.5,3.1v6.42c0,.654,2.675.684,3.21.684.208,0,.773,0,1.4-.059A2.515,2.515,0,0,0,11.129,10V5.6c.832-.208,1.367-1.516,1.367-2.259a1.748,1.748,0,0,0-1.6-1.843ZM2.213,3.1a11.842,11.842,0,0,1,2.5-.238,11.842,11.842,0,0,1,2.5.238,11.842,11.842,0,0,1-2.5.238A11.658,11.658,0,0,1,2.213,3.1ZM5.156,6.552A1.843,1.843,0,1,1,7,8.4,1.872,1.872,0,0,1,5.156,6.552Z" transform="translate(-1.5 -1.5)" fill="#1f2674"/>
</svg>
