<svg xmlns="http://www.w3.org/2000/svg" width="20.839" height="20.504" viewBox="0 0 20.839 20.504">
  <g id="capsule" transform="translate(0 0)">
    <path id="Path_2404" data-name="Path 2404" d="M175.806-507.556a5.826,5.826,0,0,0-1.753.546,8.094,8.094,0,0,0-2.2,1.8c-1.292,1.268-3.852,3.807-3.852,3.82s7.684,7.578,7.708,7.578c.077,0,5.038-4.953,5.259-5.246a5.288,5.288,0,0,0,.938-2.071,5.88,5.88,0,0,0,0-2.2,5.218,5.218,0,0,0-1.557-2.752,5.244,5.244,0,0,0-2.694-1.406A6.284,6.284,0,0,0,175.806-507.556Z" transform="translate(-161.169 507.597)" fill="#fecd1a"/>
    <path id="Path_2405" data-name="Path 2405" d="M4.15-340.174c-1.806,1.785-2.625,2.629-2.78,2.849a5.738,5.738,0,0,0-.868,2.03,6.832,6.832,0,0,0,0,2.038,5.284,5.284,0,0,0,1.553,2.8,5.264,5.264,0,0,0,3.836,1.533,5.072,5.072,0,0,0,1.843-.306c.982-.346,1.4-.648,2.845-2.071,1.463-1.439,3.852-3.807,3.852-3.82s-7.672-7.578-7.7-7.586C6.718-342.709,5.556-341.572,4.15-340.174Zm1.264,1.145a.716.716,0,0,1,.22,1.137.657.657,0,0,1-.542.232.714.714,0,0,1-.379-1.329A.848.848,0,0,1,5.413-339.028Zm2.038,2.874a.646.646,0,0,1,.355.383.65.65,0,0,1-.024.587.674.674,0,0,1-.489.383.736.736,0,0,1-.836-.4.887.887,0,0,1,0-.616.948.948,0,0,1,.391-.371A.856.856,0,0,1,7.452-336.154Zm3.7.408a.864.864,0,0,1,.285.232.531.531,0,0,1,.118.424.531.531,0,0,1-.118.424.813.813,0,0,1-.6.31.813.813,0,0,1-.6-.31.531.531,0,0,1-.118-.424.531.531,0,0,1,.118-.424.813.813,0,0,1,.6-.31A.934.934,0,0,1,11.153-335.747ZM3.371-334.7a.7.7,0,0,1,.452.738.721.721,0,0,1-1.031.591.719.719,0,0,1,0-1.313A.681.681,0,0,1,3.371-334.7Zm3.465,2.552a.753.753,0,0,1,.469.693.735.735,0,0,1-1.39.314.683.683,0,0,1-.008-.628A.761.761,0,0,1,6.836-332.151Z" transform="translate(-0.425 349.423)" fill="#fd3a69"/>
  </g>
</svg>
