<svg id="trash" xmlns="http://www.w3.org/2000/svg" width="12.878" height="14.049" viewBox="0 0 12.878 14.049">
  <path id="Path_1526" data-name="Path 1526" d="M16.781,2.342V1.756A1.758,1.758,0,0,0,15.025,0H13.854A1.758,1.758,0,0,0,12.1,1.756v.585H8V3.512H20.878V2.342Zm-3.512-.585a.586.586,0,0,1,.585-.585h1.171a.586.586,0,0,1,.585.585v.585H13.268Z" transform="translate(-8)" fill="#ef7626"/>
  <path id="Path_1527" data-name="Path 1527" d="M18.66,64.389a1.754,1.754,0,0,0,1.745,1.562h6.1a1.754,1.754,0,0,0,1.745-1.562L29.183,56H17.728ZM25.8,57.122l1.167.1-.585,7.025-1.167-.1Zm-2.929.049h1.171V64.2H22.87Zm-1.758-.049.585,7.025-1.167.1-.585-7.025Z" transform="translate(-17.016 -51.902)" fill="#ef7626"/>
</svg>
