<svg xmlns="http://www.w3.org/2000/svg" width="10.286" height="11.515" viewBox="0 0 10.286 11.515">
  <g id="medicine_1_" data-name="medicine (1)" transform="translate(-26.8 511.803)">
    <path id="Path_2116" data-name="Path 2116" d="M349.482-511.765a1.046,1.046,0,0,0-.594.54c-.072.146-.072.153-.079.524l-.009.378h2.034l-.009-.378c-.007-.376-.007-.376-.083-.533a1.065,1.065,0,0,0-.486-.484.7.7,0,0,0-.4-.083A.847.847,0,0,0,349.482-511.765Z" transform="translate(-314.755)" fill="#212775"/>
    <path id="Path_2117" data-name="Path 2117" d="M27.56-451.957a.316.316,0,0,0-.148.295.31.31,0,0,0,.355.337h.139v.675h-.139a.31.31,0,0,0-.355.337.31.31,0,0,0,.355.337h.139v.351l-.2.1a1.372,1.372,0,0,0-.4.3,1.491,1.491,0,0,0-.5,1.107l-.011.277h5.409l-.011-.277a1.491,1.491,0,0,0-.5-1.107,1.4,1.4,0,0,0-.4-.3l-.2-.1v-.351h.142a.309.309,0,0,0,.353-.337.309.309,0,0,0-.353-.337H31.1v-.675h.142a.309.309,0,0,0,.353-.337.316.316,0,0,0-.148-.295A8.856,8.856,0,0,0,29.5-452,8.856,8.856,0,0,0,27.56-451.957Z" transform="translate(0 -58.458)" fill="#212775"/>
    <path id="Path_2118" data-name="Path 2118" d="M304.18-416.963a.367.367,0,0,0-.128.115c-.052.077-.052.083-.052.868s0,.792.052.868c.108.164,0,.155,1.973.155s1.865.009,1.973-.155c.052-.076.052-.083.052-.868s0-.792-.052-.868c-.108-.164,0-.155-1.973-.155A9.369,9.369,0,0,0,304.18-416.963Z" transform="translate(-270.963 -92.667)" fill="#212775"/>
    <path id="Path_2119" data-name="Path 2119" d="M348-295.5v1.5h2.047V-297H348Z" transform="translate(-313.973 -209.971)" fill="#212775"/>
    <path id="Path_2120" data-name="Path 2120" d="M27-235.65v1.35h5.4V-237H27Zm2.866-.767a.376.376,0,0,1,.162.3l.013.128.128.013c.216.025.34.144.34.328s-.124.3-.34.328l-.128.014-.013.128c-.025.216-.144.34-.328.34s-.3-.124-.328-.34l-.014-.128-.128-.014c-.214-.025-.34-.144-.34-.324s.117-.306.342-.333l.126-.013.014-.124a.357.357,0,0,1,.153-.3A.349.349,0,0,1,29.866-236.417Z" transform="translate(-0.195 -268.621)" fill="#212775"/>
    <path id="Path_2121" data-name="Path 2121" d="M347.809-133.6c.009.43.009.434.144.594.169.2.176.232.191.9a4.424,4.424,0,0,0,.043.679.707.707,0,0,0,.335.371.507.507,0,0,0,.313.074.627.627,0,0,0,.61-.364l.07-.137v-.5c0-.666.029-.805.214-1.035.121-.151.124-.162.124-.583v-.4H347.8Z" transform="translate(-313.778 -369.303)" fill="#212775"/>
    <path id="Path_2122" data-name="Path 2122" d="M26.907-86.388l.007.614.072.148a1.016,1.016,0,0,0,.607.538,10.051,10.051,0,0,0,2.054.04l1.924-.007.157-.076a1.081,1.081,0,0,0,.486-.486l.076-.157.007-.614L32.3-87H26.9Z" transform="translate(-0.098 -415.246)" fill="#212775"/>
  </g>
</svg>
