<svg xmlns="http://www.w3.org/2000/svg" width="13.99" height="14" viewBox="0 0 13.99 14">
  <g id="editing" transform="translate(-0.5 511.906)">
    <path id="Path_2148" data-name="Path 2148" d="M417.472-511.884c-.151.047-.249.123-.6.479l-.37.372.871.868.868.871.372-.37a4.13,4.13,0,0,0,.43-.479.817.817,0,0,0,.008-.6,4.8,4.8,0,0,0-.534-.591c-.411-.411-.5-.49-.616-.528A.767.767,0,0,0,417.472-511.884Z" transform="translate(-404.612)" fill="#3f88e5"/>
    <path id="Path_2149" data-name="Path 2149" d="M185.222-455.4l-2.592,2.592-.315.944c-.172.52-.315.975-.315,1.01a.448.448,0,0,0,.23.356.515.515,0,0,0,.181.057c.036,0,.49-.142,1.01-.315l.947-.315,2.6-2.6,2.6-2.6-.862-.862c-.474-.474-.868-.862-.876-.862S186.651-456.834,185.222-455.4Z" transform="translate(-176.531 -52.43)" fill="#3f88e5"/>
    <path id="Path_2150" data-name="Path 2150" d="M1.7-429.973a1.533,1.533,0,0,0-1.142,1.007l-.063.183v9.335l.063.181a1.54,1.54,0,0,0,.958.961l.183.063h9.335l.183-.063a1.559,1.559,0,0,0,.958-.953l.063-.161.008-3.833.005-3.833-1.949,1.946a16.055,16.055,0,0,1-2.13,2.029,18.9,18.9,0,0,1-2.212.712,1.247,1.247,0,0,1-.953-.359,1.241,1.241,0,0,1-.356-.98,21.788,21.788,0,0,1,.709-2.185,16.055,16.055,0,0,1,2.029-2.13L9.339-430l-3.761,0C3.509-429.995,1.765-429.984,1.7-429.973Z" transform="translate(0 -79.664)" fill="#3f88e5"/>
  </g>
</svg>
