<svg xmlns="http://www.w3.org/2000/svg" width="10" height="10" viewBox="0 0 10 10">
  <g id="pills" transform="translate(0.2 512.2)">
    <path id="Path_2132" data-name="Path 2132" d="M4.419-512.184l-.244.029A4.987,4.987,0,0,0,1.27-510.73a4.984,4.984,0,0,0-1.456,3.193l-.014.162H.087c.355,0,.418.027.418.176s-.062.176-.418.176H-.2l.014.162A4.984,4.984,0,0,0,1.27-503.67a4.984,4.984,0,0,0,3.195,1.456l.16.014v-.287c0-.355.027-.418.176-.418s.176.062.176.418v.283l.162-.012a5.6,5.6,0,0,0,1.077-.189l.068-.023-.447-.447-.445-.445L5.2-503.3a4.955,4.955,0,0,1-1.036-.025,3.9,3.9,0,0,1-2.137-1.107A3.791,3.791,0,0,1,1-506.244a2.931,2.931,0,0,1-.109-.956A2.931,2.931,0,0,1,1-508.156a3.791,3.791,0,0,1,1.032-1.815A3.791,3.791,0,0,1,3.844-511a2.931,2.931,0,0,1,.956-.109,2.931,2.931,0,0,1,.956.109,3.933,3.933,0,0,1,2.732,2.457,3.677,3.677,0,0,1,.228,1.239,3.642,3.642,0,0,1-.2,1.354,1.594,1.594,0,0,0-.051.158.479.479,0,0,0,.162.029,1.635,1.635,0,0,1,.738.224.614.614,0,0,0,.113.059,2.794,2.794,0,0,0,.185-.587,6.822,6.822,0,0,0,.119-.814l.01-.141H9.5c-.3,0-.3,0-.351-.051a.164.164,0,0,1,.01-.25c.059-.049.066-.051.353-.051H9.8l-.014-.162A4.984,4.984,0,0,0,8.33-510.73a4.984,4.984,0,0,0-3.193-1.456l-.162-.014v.287c0,.355-.027.418-.176.418s-.176-.062-.176-.416v-.285l-.072,0C4.511-512.192,4.453-512.186,4.419-512.184Z" transform="translate(0)" fill="#212775"/>
    <path id="Path_2133" data-name="Path 2133" d="M76.931-438.652a3.623,3.623,0,0,0-.98.211,3.476,3.476,0,0,0-1.286.829,3.511,3.511,0,0,0-1.015,2.022,4.988,4.988,0,0,0,0,1,3.511,3.511,0,0,0,1.015,2.022,3.487,3.487,0,0,0,1.963,1.005,4.494,4.494,0,0,0,.81.037c0-.01-.178-.2-.4-.418-.414-.42-.488-.517-.584-.775a1.675,1.675,0,0,1-.008-.749,1.258,1.258,0,0,1,.681-.771,1.421,1.421,0,0,1,.244-.086,1.524,1.524,0,0,1,.609.02c.285.078.347.127,1,.777l.6.6.041-.059a1.862,1.862,0,0,1,.7-.548c.084-.031.1-.045.141-.152a3.6,3.6,0,0,0-.248-3.271,3.857,3.857,0,0,0-1.165-1.165,3.6,3.6,0,0,0-1.317-.486A5.384,5.384,0,0,0,76.931-438.652Zm2.4,1.425a.183.183,0,0,1,.043.121c0,.068-.045.115-1.048,1.122-.578.578-1.069,1.054-1.093,1.06a.175.175,0,0,1-.09,0c-.061-.014-1.349-1.282-1.38-1.356a.163.163,0,0,1,0-.125c.029-.084.094-.121.207-.113a7.316,7.316,0,0,1,.626.589l.589.589.943-.952c.519-.523.972-.964,1-.978A.163.163,0,0,1,79.327-437.227Z" transform="translate(-72.384 -72.108)" fill="#212775"/>
    <path id="Path_2134" data-name="Path 2134" d="M234.744-199.9a.878.878,0,0,0-.383.224.892.892,0,0,0-.24.816c.049.23.105.3.628.831l.492.492.628-.628.63-.63-.474-.474a4.811,4.811,0,0,0-.585-.541A.882.882,0,0,0,234.744-199.9Z" transform="translate(-229.729 -306.175)" fill="#212775"/>
    <path id="Path_2135" data-name="Path 2135" d="M394.089-163.973a1.853,1.853,0,0,0-.254.1,1.918,1.918,0,0,0-.449.425c-.027.055-.025.055.185.267l.215.215h1.887l-.014-.084a1.274,1.274,0,0,0-.943-.948A1.547,1.547,0,0,0,394.089-163.973Z" transform="translate(-385.893 -341.387)" fill="#212775"/>
    <path id="Path_2136" data-name="Path 2136" d="M306.125-127.375l-.625.625.474.474a6.311,6.311,0,0,0,.582.541.877.877,0,0,0,1.095-.141.858.858,0,0,0,.242-.742c-.047-.287-.074-.324-.625-.88-.273-.275-.5-.5-.509-.5S306.468-127.719,306.125-127.375Z" transform="translate(-299.734 -376.702)" fill="#212775"/>
    <path id="Path_2137" data-name="Path 2137" d="M434-91.021s.031.059.068.121a1.248,1.248,0,0,1,.18.763l-.014.183.123-.014a1.261,1.261,0,0,0,.658-.246,1.29,1.29,0,0,0,.449-.619c.068-.219.148-.2-.712-.2C434.338-91.029,434-91.025,434-91.021Z" transform="translate(-425.726 -412.951)" fill="#212775"/>
  </g>
</svg>
