<svg xmlns="http://www.w3.org/2000/svg" width="64" height="64" viewBox="0 0 64 64">
  <g id="trend" transform="translate(0 512)">
    <path id="Path_1908" data-name="Path 1908" d="M52.549-510.125v1.875h8.563l-6.375,6.388c-3.513,3.5-7.55,7.512-8.975,8.887l-2.6,2.525-7.487-7.487-7.487-7.487L16.211-493.5c-6.588,6.563-11.988,11.962-12.013,12a14.138,14.138,0,0,0,1.35,1.438l1.375,1.375,9.038-9c4.963-4.95,9.738-9.7,10.625-10.562l1.587-1.562,7.5,7.5,7.487,7.487,10.35-10.312,10.35-10.3.038,4.225L63.924-497h3.75v-15H52.549Z" transform="translate(-3.674)" fill="#128aee"/>
    <path id="Path_1909" data-name="Path 1909" d="M48.875-313.125v18.875h-3.75V-317H33.875v22.75h-3.75V-324.5H18.875v30.25h-3.75v-19H3.75v19H0v3.75H64v-3.75H60.25V-332H48.875Z" transform="translate(0 -157.5)" fill="#128aee"/>
  </g>
</svg>
