<svg xmlns="http://www.w3.org/2000/svg" width="11" height="9.934" viewBox="0 0 11 9.934">
  <g id="cardiogram" transform="translate(-0.437 486.612)">
    <path id="Path_2069" data-name="Path 2069" d="M3.218-486.588a3.225,3.225,0,0,0-1.876.981,3.228,3.228,0,0,0-.854,1.6,3.633,3.633,0,0,0,0,1.211,3.646,3.646,0,0,0,.419,1.078l.058.092h1.19l1.187,0,.226-.376a2.576,2.576,0,0,1,.286-.422.313.313,0,0,1,.331-.017c.073.041.153.153.544.766.252.4.462.718.471.718s.3-.6.645-1.34.654-1.372.68-1.415a.319.319,0,0,1,.557.041c.032.056.293.536.579,1.069l.521.968,1.36.006,1.357,0,.086-.151a3.112,3.112,0,0,0,.043-3.156,3.352,3.352,0,0,0-2.218-1.624,3.691,3.691,0,0,0-1.211,0,3.618,3.618,0,0,0-1.486.706c-.112.088-.189.133-.207.125s-.077-.058-.14-.11a3.625,3.625,0,0,0-1.5-.721A3.823,3.823,0,0,0,3.218-486.588Z" transform="translate(0)" fill="#1f2674"/>
    <path id="Path_2070" data-name="Path 2070" d="M53.742-308.305c-.858,1.816-.82,1.742-.925,1.8a.319.319,0,0,1-.338-.015,8.982,8.982,0,0,1-.533-.785c-.258-.409-.478-.74-.484-.736a2.35,2.35,0,0,0-.148.232.953.953,0,0,1-.2.265c-.065.039-.133.041-1.14.052l-1.071.011,2.149,2.134A24.823,24.823,0,0,0,53.28-303.2c.194.037.086.133,2.377-2.151,1.166-1.159,2.123-2.117,2.125-2.127s-.54-.015-1.211-.015c-1.362,0-1.321,0-1.42-.148-.028-.043-.241-.43-.473-.863s-.428-.792-.439-.8S54.007-308.865,53.742-308.305Z" transform="translate(-47.42 -173.492)" fill="#1f2674"/>
  </g>
</svg>
