<svg xmlns="http://www.w3.org/2000/svg" width="11" height="12.524" viewBox="0 0 11 12.524">
  <path id="height" d="M10.41,2.694A.974.974,0,1,0,10.117.769a.931.931,0,0,0-.816.979A1.049,1.049,0,0,0,10.41,2.694ZM14.065,6.9,11.879,2.955H8.942L6.756,6.9a.413.413,0,0,0,.033.587c.033.033.065.065.1.065a.581.581,0,0,0,.783-.2L8.844,5.173v7.667a.559.559,0,0,0,.555.424.638.638,0,0,0,.685-.392c0-.163.033-4.5.033-4.5H10.7s0,4.339.033,4.5a.655.655,0,0,0,.685.392.6.6,0,0,0,.555-.424V5.206l1.175,2.186a.6.6,0,0,0,.783.2.407.407,0,0,0,.228-.555.45.45,0,0,0-.1-.131ZM3.2,12.775h.816V.769H3.2ZM4.277,1.421v.457H6.071V1.421Zm0,3.719H6.071V4.684H4.277Zm0,3.3H6.071V7.979H4.277v.457Zm0,3.3H6.071v-.457H4.277v.457ZM5.353,9.643H4.277V10.1H5.353Zm0-3.3H4.277V6.8H5.353V6.348Zm0-3.3H4.277v.457H5.353Z" transform="translate(-3.2 -0.754)" fill="#1f2674"/>
</svg>
