<?xml version="1.0" encoding="utf-8"?>
<!-- Generator: Adobe Illustrator 19.2.0, SVG Export Plug-In . SVG Version: 6.00 Build 0)  -->
<svg version="1.1" id="Layer_1" xmlns="http://www.w3.org/2000/svg" xmlns:xlink="http://www.w3.org/1999/xlink" x="0px" y="0px"
	 viewBox="0 0 135 135" style="enable-background:new 0 0 135 135;" xml:space="preserve">
<style type="text/css">
	.st0{fill:#FFFFFF;}
</style>
<path id="ICCU" class="st0" d="M43,36.3h33.5v1c0,0.2-4.3,7.7-5.2,13.5H43V36.3z M45.2,38.5h11.2v5.6H45.2V38.5z M57.5,38.5h12.3
	v1.1H57.5V38.5z M57.5,40.7h3.3V43h-3.3V40.7z M63,40.7h6.7V43H63V40.7z M47.4,46.3c0.7,0,1.1,0.4,1.1,1.1c0,0.7-0.4,1.1-1.1,1.1
	c-0.7,0-1.1-0.4-1.1-1.1C46.3,46.8,46.7,46.3,47.4,46.3z M43,9.5h33.5V34H43V9.5z M45,11.4h29.6v20.7H45V11.4z M37.5,61.7L37.5,61.7
	C24.3,65.8,26,29.8,26,29.8h1.4c0,0,0.6,12.2,1.4,18.8s2.5,13,8.6,11.6V61.7L37.5,61.7z M125.7,125.5c-4.3-0.1-7.8-3.8-7.7-8.1
	v-16.2H7.5v8.9c0.6-0.1,1.2-0.2,1.8-0.2c4.3-0.1,7.9,3.2,8.1,7.6c0.1,4.3-3.2,7.9-7.6,8.1c-4.3,0.1-7.9-3.2-8.1-7.6
	c0-0.1,0-0.1,0-0.2c0-0.3,0,3.6,0-66c0-1.6,1.2-2.9,2.8-3c1.6,0,2.9,1.2,3,2.8v0.1v29.2h30c-3.1-0.7-5.2-3.6-5.1-6.7l0.2-12l0,0
	c0-3.7,3-6.6,6.6-6.6l16.6,0.3c-1.6,2.9-2.9,5.9-3.8,9l-6.7-1.2l16.1,7.6l13.7-8.7c2.1-1.3,4.9-0.8,6.2,1.4l0.1,0.1
	c1.3,2.2,0.7,5.1-1.4,6.6L64.3,80.9c-1.3,0.9-3,1-4.3,0.3l-17.7-8.4l7.6,6.1c-0.1,2.5-0.2,5.2-0.1,8.1c0.1,4.5,3.7,8,8.1,8h66v15.1
	c0.7-0.1,1.2-0.2,1.9-0.2c4.3,0,7.8,3.5,7.8,7.8C133.5,122,130.1,125.5,125.7,125.5L125.7,125.5z M127.3,87.2
	c-0.2,1-1.2,1.8-2.2,1.8H57.7c-1.2,0-2.3-1-2.3-2.3c0-1.1-0.1-2.3-0.1-3.5l1.8,1.4c2.9,1.9,6.6,1.9,9.5,0l15.8-10.1
	c4.3-2.8,5.6-8.6,2.9-12.9c-2.5-4.2-7.9-5.7-12.2-3.2c-0.1,0.1-0.2,0.1-0.3,0.2l-12.2,7.8l-2.8-0.6c2.9-9,7.2-12.5,7.2-12.5
	c10.7-0.3,32.6,3.6,50.2,8.8c8.7,2.6,14.9,10.4,13.5,19.6L127.3,87.2z M19.9,77.9c-5.5,0.2-10.1-4.1-10.3-9.6
	c-0.2-5.5,4.1-10.1,9.6-10.3c5.5-0.2,10.1,4.1,10.3,9.6c0,0.1,0,0.2,0,0.3C29.6,73.3,25.3,77.8,19.9,77.9L19.9,77.9L19.9,77.9z
	 M38.6,11.1h0.7c0.7,0,1.1,0.6,1.1,1.1v54.2c0,0.7-0.4,1.1-1.1,1.1h-0.7c-0.7,0-1.1-0.4-1.1-1.1l0,0V12.2
	C37.5,11.5,37.9,11.1,38.6,11.1L38.6,11.1L38.6,11.1z M27.1,9.6h12c0.7,0,1.1,0.6,1.1,1.1v0.7c0,0.7-0.4,1.1-1.1,1.1h-12
	c-0.7,0-1.1-0.6-1.1-1.1v-0.7C26,10.1,26.4,9.6,27.1,9.6L27.1,9.6z M26,9.6h1.4v7.2H26V9.6z M25.1,16.9h3.3c1.9,0,3.3,1.6,3.3,3.3
	l0,0v7.7c0,1.9-1.4,3.3-3.3,3.3l0,0h-3.3c-1.9,0-3.3-1.6-3.3-3.3l0,0v-7.7C21.7,18.3,23.2,16.9,25.1,16.9L25.1,16.9L25.1,16.9z
	 M68.3,21.3h-3l-1-4h-0.9l-1,4h-1.8l-0.4,0.3l-0.7,2.6l-1.8-6.9h-0.9l-1,4h-3.2c-0.2-0.7-0.3-1.4-0.3-2.2c-0.1-2.8,2.1-5,4.8-5.1
	c1.7,2,4.6,2.2,6.5,0.6c0.2-0.1,0.3-0.3,0.6-0.6c2.8,0.1,4.9,2.3,4.8,5.1C68.6,19.9,68.5,20.5,68.3,21.3L68.3,21.3z M56.3,21.9
	l0.7-2.6l1.8,6.9h0.9l1-4h1.8l0.4-0.3l0.7-2.6l0.7,2.6l0.4,0.3h3c-2,4.5-7.6,7.4-7.6,7.4s-5.6-2.9-7.6-7.4h3.2L56.3,21.9z"/>
</svg>
