<?xml version="1.0" encoding="utf-8"?>
<!-- Generator: Adobe Illustrator 19.2.0, SVG Export Plug-In . SVG Version: 6.00 Build 0)  -->
<svg version="1.1" id="Layer_1" xmlns="http://www.w3.org/2000/svg" xmlns:xlink="http://www.w3.org/1999/xlink" x="0px" y="0px"
	 viewBox="0 0 135 135" style="enable-background:new 0 0 135 135;" xml:space="preserve">
<style type="text/css">
	.st0{fill:#FFFFFF;}
</style>
<path id="ICU" class="st0" d="M26.4,1.5h24.1v15.7H26.4V1.5z M27.8,2.8H49v12.9H27.8V2.8L27.8,2.8z M37.8,70.4L37.8,70.4
	c-13,4.1-11.4-31.6-11.4-31.6h1.4c0,0,0.6,12,1.4,18.7c0.9,6.6,2.4,12.9,8.5,11.5V70.4L37.8,70.4z M125.2,133.6
	c-4.3-0.1-7.7-3.8-7.6-8.1v-16H8v8.8c0.6-0.1,1.2-0.2,1.8-0.2c4.3-0.1,7.8,3.2,8.1,7.5c0.1,4.3-3.2,7.8-7.5,8.1
	c-4.3,0.2-7.8-3.2-8.1-7.5c0-0.1,0-0.1,0-0.2c0-0.3,0,3.5,0-65.4c0-1.5,1.2-2.9,2.8-3c1.5,0,2.9,1.2,3,2.8c0,0.1,0,0.1,0,0.2v29
	h29.7c-3.1-0.7-5.2-3.5-5.1-6.6l0.2-11.9l0,0c0-3.6,3-6.5,6.5-6.5l16.5,0.2c-1.5,2.9-2.9,5.9-3.8,9l-6.6-1.2l15.9,7.5l13.5-8.6
	c2.1-1.3,4.9-0.8,6.2,1.4l0.1,0.1c1.3,2.2,0.7,5.1-1.4,6.5L64.2,89.4c-1.3,0.9-3,1-4.3,0.3l-17.6-8.3l7.5,6.1
	c-0.1,2.4-0.2,5.2-0.1,8.1c0.1,4.4,3.6,8,8.1,8h65.5v14.9c0.7-0.1,1.2-0.2,1.9-0.2c4.3,0.2,7.6,3.8,7.4,8.1
	C132.5,130.2,129.3,133.4,125.2,133.6L125.2,133.6z M126.8,95.7c-0.2,1-1.2,1.8-2.2,1.8H57.8c-1.2,0-2.3-1-2.3-2.3
	c0-1.1-0.1-2.3-0.1-3.4l1.8,1.4c2.9,1.9,6.5,1.9,9.4,0l15.6-10.1c4.3-2.8,5.5-8.5,2.9-12.8c-2.4-4.2-7.8-5.6-12-3.2
	c-0.1,0.1-0.2,0.1-0.3,0.2L60.4,75l-2.8-0.6c2.9-9,7.2-12.4,7.2-12.4c10.6-0.3,32.3,3.5,49.7,8.7c8.6,2.5,14.8,10.3,13.4,19.5
	L126.8,95.7z M20.3,86.4c-5.4,0.2-10.1-4.1-10.2-9.5s4.1-10.1,9.5-10.2c5.4-0.2,10.1,4.1,10.2,9.5c0,0.1,0,0.2,0,0.3
	C29.9,81.9,25.6,86.3,20.3,86.4z M38.9,20.1h0.7c0.7,0,1.1,0.6,1.1,1.1l0,0v53.7c0,0.7-0.4,1.1-1.1,1.1l0,0h-0.7
	c-0.7,0-1.1-0.6-1.1-1.1l0,0V21.2C37.8,20.6,38.2,20.1,38.9,20.1L38.9,20.1L38.9,20.1z M27.5,18.6h21.9c0.7,0,1.1,0.6,1.1,1.1l0,0
	v0.7c0,0.7-0.4,1.1-1.1,1.1l0,0H27.5c-0.7,0-1.1-0.6-1.1-1.1l0,0v-0.7C26.4,19.2,26.8,18.6,27.5,18.6L27.5,18.6L27.5,18.6z
	 M26.4,18.6h1.4v7.2h-1.4V18.6z M25.5,25.8h3.3c1.9,0,3.3,1.5,3.3,3.3l0,0v7.6c0,1.9-1.4,3.3-3.3,3.3h-3.3c-1.9,0-3.3-1.5-3.3-3.3
	v-7.6C22.1,27.4,23.6,25.8,25.5,25.8L25.5,25.8L25.5,25.8z M44.1,9h-2l-0.7-2.3h-0.7L40.1,9H39l-0.3,0.2l-0.4,1.4l-1.2-4h-0.7
	L35.7,9h-2.2c-0.1-0.4-0.2-0.8-0.2-1.2c0.1-1.7,1.5-3,3.2-3c1.3,1.2,3.3,1.2,4.6,0c1.7-0.1,3.1,1.2,3.2,3C44.3,8.1,44.2,8.6,44.1,9
	L44.1,9z M36.2,9.3l0.4-1.4l1.2,4h0.7l0.7-2.3h1.1l0.3-0.2l0.4-1.4l0.4,1.4l0.3,0.2h2c-1.3,2.5-5.1,4.2-5.1,4.2s-3.6-1.7-5.1-4.2
	h2.1L36.2,9.3z"/>
</svg>
