<svg xmlns="http://www.w3.org/2000/svg" width="26.194" height="22.899" viewBox="0 0 26.194 22.899">
  <g id="Injection" transform="translate(0 0)">
    <path id="Path_2400" data-name="Path 2400" d="M320.255-499.861c-.056.031-.027-.024-.492.441l-3.487,3.482-.236-.2a1.445,1.445,0,0,0-2.017.113c-.317.358-.328.348,1.157,1.828s1.469,1.475,1.828,1.157a1.445,1.445,0,0,0,.113-2.017l-.2-.236,3.482-3.487s.41-.441.441-.5a.365.365,0,0,0-.092-.481A.386.386,0,0,0,320.255-499.861Z" transform="translate(-297.792 499.913)" fill="#d3dcfb"/>
    <path id="Path_2401" data-name="Path 2401" d="M431.159-386.373a12.433,12.433,0,0,0-1.761,2.156,1.826,1.826,0,0,0-.2,1.275,2.111,2.111,0,0,0,3,1.557,2.115,2.115,0,0,0,1-2.785,17.759,17.759,0,0,0-1.464-1.915C431.512-386.348,431.389-386.409,431.159-386.373Z" transform="translate(-407.197 389.605)" fill="#42c3fc"/>
    <path id="Path_2402" data-name="Path 2402" d="M69.313-360.517c-.241.072-.584.4-4.992,4.808l-4.736,4.731-.323-.3a1.863,1.863,0,0,0-.44-.338.461.461,0,0,0-.517.533c.046.189,5.888,6.032,6.078,6.078a.461.461,0,0,0,.533-.517,1.863,1.863,0,0,0-.338-.44l-.3-.323,1.254-1.254c1.137-1.147,1.249-1.275,1.249-1.434s-.077-.246-.614-.8c-.558-.568-.614-.645-.614-.814a.422.422,0,0,1,.435-.435c.169,0,.246.056.814.614.553.543.65.614.8.614s.287-.113,1.47-1.3c1.019-1.014,1.3-1.326,1.326-1.459.031-.159,0-.2-.87-1.08s-.9-.927-.9-1.116a.394.394,0,0,1,.43-.425c.189,0,.246.051,1.086.881.814.8.906.881,1.075.881s.261-.082,1.306-1.126c1.26-1.26,1.352-1.388,1.352-1.915a1.036,1.036,0,0,0-.143-.594,34.464,34.464,0,0,0-3.41-3.4A1.41,1.41,0,0,0,69.313-360.517Z" transform="translate(-55.32 365.122)" fill="#42c3fc"/>
    <path id="Path_2403" data-name="Path 2403" d="M2.759-123.684l-1.321,1.311-.287-.261a1.539,1.539,0,0,0-.425-.3.453.453,0,0,0-.5.527,15.872,15.872,0,0,0,1.736,1.854c.937.937,1.761,1.741,1.838,1.782a.371.371,0,0,0,.507-.077c.195-.2.189-.353-.036-.65l-.184-.241L5.4-121.052c1.208-1.208,1.311-1.326,1.311-1.49s-.092-.271-1.142-1.316S4.413-125,4.249-125,3.968-124.892,2.759-123.684Z" transform="translate(-0.215 141.607)" fill="#d3dcfb"/>
  </g>
</svg>
