<svg xmlns="http://www.w3.org/2000/svg" width="22.194" height="22.19" viewBox="0 0 22.194 22.19">
  <g id="INSULINE" transform="translate(-0.122 511.787)">
    <path id="Path_2415" data-name="Path 2415" d="M360.375-511.709c-.082.043-1.028.958-2.1,2.034l-1.947,1.951-.308-.3c-.49-.468-.754-.468-1.236.022l-.282.282,1.379,1.374,1.375,1.379.282-.282c.49-.481.49-.746.022-1.236l-.3-.308,1.951-1.947c1.075-1.075,1.99-2.025,2.038-2.112a.6.6,0,0,0,0-.6A.636.636,0,0,0,360.375-511.709Z" transform="translate(-339.013)" fill="#95a5a5"/>
    <path id="Path_2416" data-name="Path 2416" d="M150.111-411.45a4.376,4.376,0,0,0-.889.776l-.737.733.746.75c.819.833.889.937.8,1.279a.712.712,0,0,1-.5.468c-.3.061-.438-.03-1.231-.815l-.746-.741-.455.451-.455.455.733.737a10.988,10.988,0,0,1,.78.832.788.788,0,0,1,.048.282.638.638,0,0,1-.924.572,8.855,8.855,0,0,1-.854-.78l-.715-.711-.455.455-.451.455.763.772c.646.65.767.793.793.937a.658.658,0,0,1-.481.763c-.325.074-.416.013-1.21-.78a9.59,9.59,0,0,0-.78-.737,6.622,6.622,0,0,0-.889.889c0,.056,4.518,4.574,4.574,4.574.026,0,1.609-1.565,3.521-3.482,3.82-3.824,3.646-3.625,3.529-4.032-.048-.156-.321-.447-1.925-2.06-1.032-1.032-1.929-1.912-2-1.96A.769.769,0,0,0,150.111-411.45Z" transform="translate(-136.683 -95.963)" fill="#f0c419"/>
    <path id="Path_2417" data-name="Path 2417" d="M362.3-239.909c-.321.169-.421.62-.273,1.249a2.593,2.593,0,0,0,.767,1.292,3.7,3.7,0,0,1,.447.529c.043.134-.087.338-.473.741a2.641,2.641,0,0,0-.806,2.09v.512h6.5v-.49a2.676,2.676,0,0,0-.846-2.155,3.4,3.4,0,0,1-.429-.512c-.048-.147.052-.317.408-.676a2.593,2.593,0,0,0,.85-1.778.778.778,0,0,0-.065-.538.61.61,0,0,0-.264-.269c-.165-.082-.247-.087-2.914-.087C362.563-240,362.459-239.991,362.3-239.909Z" transform="translate(-346.152 -260.003)" fill="#90bae1"/>
    <path id="Path_2418" data-name="Path 2418" d="M65.935-226.545l-.451.451-.308-.295c-.4-.395-.655-.447-.984-.217a.676.676,0,0,0-.191.811c.078.143,5.689,5.745,5.823,5.814a.665.665,0,0,0,.841-.3c.165-.308.087-.551-.3-.932l-.264-.26.464-.464.468-.468-2.3-2.3c-1.262-1.266-2.307-2.3-2.32-2.3S66.187-226.8,65.935-226.545Z" transform="translate(-61.049 -272.439)" fill="#90bae1"/>
    <path id="Path_2419" data-name="Path 2419" d="M2.61-141.089l-.906.906-.269-.26c-.408-.39-.624-.455-.95-.3a.635.635,0,0,0-.3.841c.035.074.941,1.01,2.008,2.073,1.717,1.717,1.955,1.938,2.1,1.968a.683.683,0,0,0,.776-.464c.078-.264-.009-.468-.334-.811l-.277-.291.911-.911.906-.911-1.379-1.379L3.52-142Z" transform="translate(0 -353.753)" fill="#2980ba"/>
    <path id="Path_2420" data-name="Path 2420" d="M362-58.959c0,.963.009,1.058.087,1.214a.581.581,0,0,0,.26.26c.165.082.251.087,2.905.087s2.74,0,2.905-.087a.581.581,0,0,0,.26-.26c.078-.156.087-.251.087-1.214V-60H362Z" transform="translate(-346.188 -432.198)" fill="#90bae1"/>
  </g>
</svg>
