<svg xmlns="http://www.w3.org/2000/svg" width="24.764" height="24.643" viewBox="0 0 24.764 24.643">
  <g id="Life_threatening" data-name="Life threatening" transform="translate(-34.5 475.39)">
    <path id="Path_2386" data-name="Path 2386" d="M107.339-475.207c-.456.156-.639.245-.723.361l-.117.15.662,2.652c.361,1.456.673,2.668.684,2.7s.072.011.139-.022a11.936,11.936,0,0,1,1.668-.545l.589-.145-.912-2.585c-.5-1.418-.939-2.613-.978-2.652C108.2-475.44,107.951-475.424,107.339-475.207Z" transform="translate(-67.997)" fill="#eb0000"/>
    <path id="Path_2387" data-name="Path 2387" d="M203.434-475.178c-.456.156-.639.245-.723.356l-.111.156.35,1.429c.195.784.361,1.434.367,1.445s.245-.222.528-.511a7.961,7.961,0,0,1,.9-.795,1.884,1.884,0,0,0,.384-.322,16.993,16.993,0,0,0-.684-1.846C204.3-475.411,204.04-475.389,203.434-475.178Z" transform="translate(-158.755 -0.029)" fill="#eb0000"/>
    <path id="Path_2388" data-name="Path 2388" d="M85.773-446.765a6.889,6.889,0,0,0-6.082,4.792c-.111.317-.145.484-.1.484s.267-.039.511-.089a9.71,9.71,0,0,1,2.507-.033l.4.072-.083.372c-.044.206-.089.4-.1.434s-.156.033-.478-.011a6.539,6.539,0,0,0-6.743,3.58,6.677,6.677,0,0,0-.745,3.285l.017.678-.222.056c-.122.033-.306.083-.406.117s-.2.039-.222.017a8.427,8.427,0,0,1,.017-2.157,8.266,8.266,0,0,1,2.124-4.264A6.847,6.847,0,0,1,78-440.839l.539-.289.128-.511a5.392,5.392,0,0,1,.161-.573c.056-.083-.239-.067-.873.056a7.528,7.528,0,0,0-3.819,1.8,6.231,6.231,0,0,0-1.479,2.452,10.994,10.994,0,0,0-.189,5.131,12.69,12.69,0,0,0,6.265,8.35,4.655,4.655,0,0,0,4.653.056c.728-.356,1.373-.767,1.323-.851-.022-.039-.145-.217-.272-.4a6.218,6.218,0,0,1-.762-5.415,6.268,6.268,0,0,1,5.943-4.286h.411l-.033-.406a11.37,11.37,0,0,0-.389-2.151,5.819,5.819,0,0,0-3.1-3.591,2.469,2.469,0,0,0-.467-.189c-.095,0-.15.45-.111.923l.039.406-.395.117a1.458,1.458,0,0,1-.417.094,1.993,1.993,0,0,1-.078-.317,3.626,3.626,0,0,1,.684-2.763,1.472,1.472,0,0,1,1.523-.756l.35.05c0-.006-.05-.145-.117-.311a2.689,2.689,0,0,1,.172-2.162,1.084,1.084,0,0,0,.145-.322,13.121,13.121,0,0,0-1.423-.117C86.334-446.815,86.045-446.792,85.773-446.765Z" transform="translate(-35.652 -26.986)" fill="#eb0000"/>
    <path id="Path_2389" data-name="Path 2389" d="M360.679-439.807a1.352,1.352,0,0,0-.55.739,1.7,1.7,0,0,0,.306,1.623.5.5,0,0,0,.5.228.5.5,0,0,0,.5-.228,1.7,1.7,0,0,0,.011-2.146A.707.707,0,0,0,360.679-439.807Z" transform="translate(-307.45 -33.565)" fill="#eb0000"/>
    <path id="Path_2390" data-name="Path 2390" d="M35.339-395.178c-.456.156-.639.245-.723.361l-.117.15.723,2.891.723,2.891.1-.35a7.449,7.449,0,0,1,1.212-2.474l.272-.345-.556-1.573c-.306-.862-.589-1.6-.628-1.64C36.2-395.411,35.951-395.389,35.339-395.178Z" transform="translate(0 -75.582)" fill="#eb0000"/>
    <path id="Path_2391" data-name="Path 2391" d="M376.69-342.345a10.91,10.91,0,0,0-1.69.311c0,.006.139.211.311.45a7.056,7.056,0,0,1,1.14,2.346l.128.461.189-.228a1.592,1.592,0,0,1,.845-.534,2.1,2.1,0,0,1,.517.017,3.128,3.128,0,0,0,.317.044c0-.006-.05-.145-.117-.311a2.66,2.66,0,0,1,.156-2.124l.172-.334A6.678,6.678,0,0,0,376.69-342.345Z" transform="translate(-321.571 -125.629)" fill="#eb0000"/>
    <path id="Path_2392" data-name="Path 2392" d="M448.679-335.807a1.352,1.352,0,0,0-.55.739,1.7,1.7,0,0,0,.306,1.623.5.5,0,0,0,.5.228.5.5,0,0,0,.5-.228,1.7,1.7,0,0,0,.011-2.146A.707.707,0,0,0,448.679-335.807Z" transform="translate(-390.558 -131.784)" fill="#eb0000"/>
    <path id="Path_2393" data-name="Path 2393" d="M292.692-223.527a5.352,5.352,0,0,0-3.83,2.88,5.406,5.406,0,0,0-.511,1.612l-.05.322h.728a2.086,2.086,0,0,1,.845.078,1.448,1.448,0,0,1,.267.489,3.582,3.582,0,0,0,.2.45,12.148,12.148,0,0,0,.339-1.473c.328-1.651.372-1.768.706-1.768.356,0,.395.083.656,1.529.133.728.25,1.334.261,1.345s.217-.951.45-2.135.456-2.213.489-2.279a.449.449,0,0,1,.734-.056c.044.067.284,1.362.534,2.874s.467,2.8.489,2.857.106-.183.233-.778c.206-.951.3-1.134.584-1.134.233,0,.311.067.723.634a5.84,5.84,0,0,0,.423.534,2.093,2.093,0,0,0,.139-.461c.156-.689.183-.706,1.1-.706h.745l-.05-.322a5.39,5.39,0,0,0-4.053-4.431A7.129,7.129,0,0,0,292.692-223.527Z" transform="translate(-239.691 -237.811)" fill="#eb0000"/>
    <path id="Path_2394" data-name="Path 2394" d="M293.542-152.094c-.017.078-.222,1.062-.445,2.2-.445,2.224-.456,2.251-.812,2.251s-.384-.089-.645-1.529c-.133-.728-.25-1.334-.267-1.345s-.117.473-.233,1.078c-.233,1.2-.306,1.351-.617,1.351-.289,0-.367-.122-.795-1.19l-.406-1.034H288.3l.05.345a5.359,5.359,0,0,0,4.364,4.464,5.353,5.353,0,0,0,6.176-4.464l.05-.345h-.973l-.183.762c-.206.834-.311,1.017-.595,1.017-.217,0-.284-.061-.728-.656-.295-.4-.395-.495-.417-.417-.017.056-.178.773-.361,1.6-.272,1.234-.356,1.518-.456,1.6a.443.443,0,0,1-.556-.006c-.117-.094-.167-.334-.611-2.957A23.538,23.538,0,0,0,293.542-152.094Z" transform="translate(-239.691 -305.318)" fill="#eb0000"/>
  </g>
</svg>
