<svg xmlns="http://www.w3.org/2000/svg" width="19.004" height="19" viewBox="0 0 19.004 19">
  <g id="medical-room" transform="translate(0 511.888)">
    <path id="Path_1990" data-name="Path 1990" d="M1.34-511.851a1.7,1.7,0,0,0-1.3,1.329c-.026.13-.037,2.817-.037,7.895v7.7H10.1v-7.7c0-5.078-.011-7.765-.037-7.895a1.688,1.688,0,0,0-1.333-1.333C8.481-511.9,1.577-511.9,1.34-511.851ZM8.685-510.7a.5.5,0,0,1,.223.223c.071.137.074.2.067.987l-.011.843-.241.093a2.155,2.155,0,0,1-1.147.067,2.254,2.254,0,0,1-.809-.4,1.072,1.072,0,0,0-.234-.145,1.072,1.072,0,0,0-.234.145,1.986,1.986,0,0,1-1.251.449,1.986,1.986,0,0,1-1.251-.449,1.072,1.072,0,0,0-.234-.145,1.072,1.072,0,0,0-.234.145,2.254,2.254,0,0,1-.809.4,2.155,2.155,0,0,1-1.147-.067l-.241-.093-.011-.843c-.007-.779,0-.85.067-.987A.532.532,0,0,1,1.4-510.7c.134-.074.226-.074,3.638-.078C8.478-510.779,8.544-510.779,8.685-510.7ZM4.12-501.5v4.714H3.007v-9.428H4.12Zm2.969,0v4.714H5.976v-9.428H7.089Z" fill="#97a3b4"/>
    <path id="Path_1991" data-name="Path 1991" d="M308.681-223.866v2.134H302v1.114h6.681v3.007h1.114V-226h-1.114Z" transform="translate(-290.791 -275.276)" fill="#97a3b4"/>
    <path id="Path_1992" data-name="Path 1992" d="M302-180.354v.742h5.534l-.022-.085a2.884,2.884,0,0,0-.375-.72,2.008,2.008,0,0,0-.776-.553l-.26-.108-2.049-.011L302-181.1Z" transform="translate(-290.791 -318.51)" fill="#97a3b4"/>
    <path id="Path_1993" data-name="Path 1993" d="M0-24.536v.464H1.114V-25H0Z" transform="translate(0 -468.816)" fill="#97a3b4"/>
    <path id="Path_1994" data-name="Path 1994" d="M242-24.536v.464h1.114V-25H242Z" transform="translate(-233.018 -468.816)" fill="#97a3b4"/>
  </g>
</svg>
