<svg xmlns="http://www.w3.org/2000/svg" width="10.453" height="10.447" viewBox="0 0 10.453 10.447">
  <g id="drugs" transform="translate(-0.425 511.658)">
    <path id="Path_2112" data-name="Path 2112" d="M172.768-511.635a2.976,2.976,0,0,0-1.077.435,14.693,14.693,0,0,0-1.622,1.541L169-508.59l1.3,1.3,1.3,1.3.092-.074a3.286,3.286,0,0,1,1.21-.578,3.116,3.116,0,0,1,1.714.127l.137.051.272-.3a3.446,3.446,0,0,0,.74-1.018A2.682,2.682,0,0,0,176-509a2.642,2.642,0,0,0-.46-1.447,2.724,2.724,0,0,0-1.618-1.142,1.906,1.906,0,0,0-.613-.069A3.088,3.088,0,0,0,172.768-511.635Z" transform="translate(-165.131 0)" fill="#212775"/>
    <path id="Path_2113" data-name="Path 2113" d="M2.243-338.811c-.821.828-1.22,1.242-1.3,1.357a2.984,2.984,0,0,0-.478,1.091,3.846,3.846,0,0,0,0,1.083,2.8,2.8,0,0,0,2.18,2.18,3.915,3.915,0,0,0,1.177-.01,2.691,2.691,0,0,0,.74-.286,3.4,3.4,0,0,0,.791-.635l.264-.266-.047-.129a3.9,3.9,0,0,1-.168-.64,3.84,3.84,0,0,1,.008-.919,3.181,3.181,0,0,1,.58-1.338l.069-.09-1.293-1.293c-.711-.711-1.3-1.293-1.316-1.293S2.895-339.465,2.243-338.811Z" transform="translate(0 -168.151)" fill="#212775"/>
    <path id="Path_2114" data-name="Path 2114" d="M273.592-238.862a2.741,2.741,0,0,0-.642.237,2.489,2.489,0,0,0-1.253,1.751,3.533,3.533,0,0,0,0,.805,2.472,2.472,0,0,0,1.5,1.863,3.22,3.22,0,0,0,.558.155l.076.012v-2.434a14.854,14.854,0,0,0-.035-2.429A1.886,1.886,0,0,0,273.592-238.862Z" transform="translate(-265.708 -267.184)" fill="#212775"/>
    <path id="Path_2115" data-name="Path 2115" d="M406-236.566v2.434l.088-.014a2.5,2.5,0,0,0,1.863-1.408,2.5,2.5,0,0,0,0-2.027,2.51,2.51,0,0,0-1.44-1.3,2.956,2.956,0,0,0-.49-.116C406.006-239,406-238.24,406-236.566Z" transform="translate(-397.288 -267.087)" fill="#212775"/>
  </g>
</svg>
