<svg id="Group_16133" data-name="Group 16133" xmlns="http://www.w3.org/2000/svg" width="7.908" height="16.547" viewBox="0 0 7.908 16.547">
  <path id="Path_12" data-name="Path 12" d="M53.732-481.763a1.836,1.836,0,0,0-.872.487,1.964,1.964,0,0,0-.663,1.381,2.036,2.036,0,0,0,1.92,2.154,2.017,2.017,0,0,0,1.561-.539,1.985,1.985,0,0,0,.652-1.473,1.985,1.985,0,0,0-.612-1.488A2.09,2.09,0,0,0,53.732-481.763Z" transform="translate(-50.281 481.83)" fill="#006eec"/>
  <path id="Path_14" data-name="Path 14" d="M1.971-355.87c-.275.084-.4.264-.594.854C.359-351.924,0-350.8,0-350.7a.729.729,0,0,0,.714.707c.421,0,.572-.165.85-.92l.212-.579.018,3.36c.015,2.521.033,3.393.066,3.492a1.245,1.245,0,0,0,.491.55.98.98,0,0,0,1.286-.421c.081-.147.081-.18.1-2.33l.018-2.18.209-.011.209-.011.011,2.173L4.2-344.7l.11.2a.951.951,0,0,0,1.685,0l.11-.2.018-3.389a22.933,22.933,0,0,1,.066-3.279c.029.059.128.322.227.583a2.936,2.936,0,0,0,.264.561.708.708,0,0,0,1.231-.421,11.161,11.161,0,0,0-.725-2.462c-.41-1.238-.773-2.312-.806-2.381a.759.759,0,0,0-.4-.363c-.158-.073-.231-.077-2-.073A12.381,12.381,0,0,0,1.971-355.87Z" transform="translate(0 360.539)" fill="#006eec"/>
</svg>
