<svg xmlns="http://www.w3.org/2000/svg" width="24.595" height="24.606" viewBox="0 0 24.595 24.606">
  <g id="menu-_3_" transform="translate(0)">
    <path id="Path_1958" data-name="Path 1958" d="M3.609-511.664a3.758,3.758,0,0,0-1.747.842,4,4,0,0,0-1.227,1.853l-.135.433v4.958l.135.433a3.952,3.952,0,0,0,2.609,2.609l.433.135H8.634l.433-.135a3.952,3.952,0,0,0,2.609-2.609l.135-.433v-4.958l-.135-.433a3.962,3.962,0,0,0-2.609-2.609l-.433-.13-2.358-.014A20.041,20.041,0,0,0,3.609-511.664Zm5.063,1.988A1.957,1.957,0,0,1,9.8-508.492a10.08,10.08,0,0,1,.087,2.435,10.08,10.08,0,0,1-.087,2.435,1.957,1.957,0,0,1-1.126,1.184c-.279.111-.289.111-2.493.111a10.233,10.233,0,0,1-2.46-.087,1.957,1.957,0,0,1-1.184-1.126c-.111-.274-.111-.313-.125-2.368-.014-2.2,0-2.383.207-2.835a2.094,2.094,0,0,1,.789-.823c.452-.231.563-.241,2.845-.231C8.37-509.787,8.4-509.787,8.673-509.676Z" transform="translate(-0.5 511.723)" fill="#fff"/>
    <path id="Path_1959" data-name="Path 1959" d="M279.609-511.664a3.758,3.758,0,0,0-1.747.842,4,4,0,0,0-1.227,1.853l-.135.433v4.958l.135.433a3.952,3.952,0,0,0,2.609,2.609l.433.135h4.958l.433-.135a3.952,3.952,0,0,0,2.609-2.609l.135-.433v-4.958l-.135-.433a3.962,3.962,0,0,0-2.609-2.609l-.433-.13-2.358-.014A20.041,20.041,0,0,0,279.609-511.664Zm5.063,1.988a1.957,1.957,0,0,1,1.126,1.184,10.075,10.075,0,0,1,.087,2.435,10.075,10.075,0,0,1-.087,2.435,1.956,1.956,0,0,1-1.126,1.184c-.279.111-.289.111-2.493.111a10.232,10.232,0,0,1-2.46-.087,1.957,1.957,0,0,1-1.184-1.126c-.111-.274-.111-.313-.125-2.368-.014-2.2,0-2.383.207-2.835a2.094,2.094,0,0,1,.789-.823c.452-.231.563-.241,2.845-.231C284.37-509.787,284.4-509.787,284.673-509.676Z" transform="translate(-263.216 511.723)" fill="#fff"/>
    <path id="Path_1960" data-name="Path 1960" d="M3.609-235.664a3.758,3.758,0,0,0-1.747.842,4,4,0,0,0-1.227,1.853l-.135.433v4.958l.135.433a3.952,3.952,0,0,0,2.609,2.609l.433.135H8.634l.433-.135a3.952,3.952,0,0,0,2.609-2.609l.135-.433v-4.958l-.135-.433a3.962,3.962,0,0,0-2.609-2.609l-.433-.13-2.358-.014A20.044,20.044,0,0,0,3.609-235.664Zm5.063,1.988A1.957,1.957,0,0,1,9.8-232.492a10.08,10.08,0,0,1,.087,2.435,10.08,10.08,0,0,1-.087,2.435,1.957,1.957,0,0,1-1.126,1.184c-.279.111-.289.111-2.493.111a10.23,10.23,0,0,1-2.46-.087,1.957,1.957,0,0,1-1.184-1.126c-.111-.274-.111-.313-.125-2.368-.014-2.2,0-2.383.207-2.835a2.1,2.1,0,0,1,.789-.823c.452-.231.563-.241,2.845-.231C8.37-233.787,8.4-233.787,8.673-233.676Z" transform="translate(-0.5 249.007)" fill="#fff"/>
    <path id="Path_1961" data-name="Path 1961" d="M279.609-235.908a3.757,3.757,0,0,0-1.747.842,4,4,0,0,0-1.227,1.853l-.135.433v4.958l.135.433a3.952,3.952,0,0,0,2.609,2.609l.433.135h4.958l.433-.135a3.838,3.838,0,0,0,2.739-3.528c0-.448,0-.5-.125-.679a.865.865,0,0,0-.809-.424c-.582,0-.881.3-.963.982a1.949,1.949,0,0,1-1.319,1.771,10.081,10.081,0,0,1-2.435.087,10.08,10.08,0,0,1-2.435-.087,1.957,1.957,0,0,1-1.184-1.126c-.111-.279-.111-.289-.111-2.517s0-2.238.111-2.517a1.957,1.957,0,0,1,1.184-1.126,10.378,10.378,0,0,1,2.484-.087h2.238l.313.149a1.965,1.965,0,0,1,.943.89,1.1,1.1,0,0,0,.862.659.992.992,0,0,0,1.016-.828,2.3,2.3,0,0,0-.871-1.646,3.7,3.7,0,0,0-2.171-1.126C284-236.009,279.985-235.985,279.609-235.908Z" transform="translate(-263.216 249.251)" fill="#fff"/>
  </g>
</svg>
