<svg xmlns="http://www.w3.org/2000/svg" width="21.133" height="21.163" viewBox="0 0 21.133 21.163">
  <g id="nebulizer" transform="translate(-1.5 511.413)">
    <path id="Path_2427" data-name="Path 2427" d="M124.829-511.4a9.449,9.449,0,0,0-2.372.464,2.287,2.287,0,0,0-1.391,1.548A10.1,10.1,0,0,0,121-507.5a8.2,8.2,0,0,0,.083,1.962,3.135,3.135,0,0,0,1.105,1.71l.281.211.021-1.089a3.869,3.869,0,0,1,.116-1.333,1.98,1.98,0,0,1,1.118-1.147c.232-.091.265-.1,1.519-.087a5.628,5.628,0,0,1,1.536.087,1.906,1.906,0,0,1,1.184,1.118c.087.224.1.306.108,1.362a8.941,8.941,0,0,0,.05,1.13,3.3,3.3,0,0,0,.712-.567,3.176,3.176,0,0,0,.762-1.457,27.581,27.581,0,0,0,0-3.792,2.339,2.339,0,0,0-1.407-1.577A8.933,8.933,0,0,0,124.829-511.4Z" transform="translate(-114.553)" fill="#cfe6e6"/>
    <path id="Path_2428" data-name="Path 2428" d="M188.84-381.83c-.517.029-.638.079-.766.339-.066.124-.075.269-.075,1.155,0,1.1.029,1.3.224,1.631a1.773,1.773,0,0,0,.762.654,1.549,1.549,0,0,0,.609.1,1.042,1.042,0,0,0,.617-.12,1.6,1.6,0,0,0,.741-.762l.132-.277.012-1.109c.012-1.051.008-1.118-.07-1.283a.628.628,0,0,0-.248-.269c-.149-.083-.211-.091-.816-.083C189.6-381.854,189.1-381.842,188.84-381.83Z" transform="translate(-178.78 -124.189)" fill="#407580"/>
    <path id="Path_2429" data-name="Path 2429" d="M210.821-257.239a1.852,1.852,0,0,0,1.051,1.428c.273.124.306.132,1.027.157.41.017,2.509.033,4.661.033l3.916,0,.178.1c.339.178.331.128.331,2.223,0,1.763,0,1.846-.083,1.979a.634.634,0,0,1-.484.3h-.137v1.283h.145a1.958,1.958,0,0,0,1.61-.985c.224-.443.232-.534.232-2.558,0-1.089-.017-1.962-.041-2.091a1.907,1.907,0,0,0-1.027-1.308l-.315-.157-4.744-.021c-4.483-.021-4.748-.025-4.856-.1a.654.654,0,0,1-.277-.443v-.1H210.8Z" transform="translate(-200.636 -243.402)" fill="#3dccc0"/>
    <path id="Path_2430" data-name="Path 2430" d="M7.875-170.5c-3.92.017-5.29.033-5.394.07a1.484,1.484,0,0,0-.873.8L1.5-169.4v4.843l.116.232a1.674,1.674,0,0,0,.72.708l.2.091,5.568.033c3.063.017,6.619.029,7.907.025l2.339-.012.236-.112a1.593,1.593,0,0,0,.729-.729l.112-.236v-4.885l-.112-.228a1.575,1.575,0,0,0-.737-.72l-.269-.128H15.72C14.3-170.523,10.769-170.511,7.875-170.5Zm4.069,2.554a.6.6,0,0,1,.116,1.006c-.1.1-.145.1-.816.132-.385.021-2.173.029-3.97.025-3.245-.012-3.266-.012-3.382-.1a.645.645,0,0,1,.087-1.1c.166-.079.265-.079,3.995-.058C11.53-168.018,11.808-168.01,11.944-167.944Zm2.567.046a.6.6,0,0,1-.046,1,.6.6,0,0,1-.9-.522A.6.6,0,0,1,14.511-167.9Zm2.393-.029a.61.61,0,0,1,.335.6.6.6,0,0,1-.89.431.594.594,0,0,1,.033-1.043A.486.486,0,0,1,16.9-167.927Z" transform="translate(0 -326.781)" fill="#407580"/>
  </g>
</svg>
