<svg id="bell" xmlns="http://www.w3.org/2000/svg" width="19.286" height="23.31" viewBox="0 0 19.286 23.31">
  <g id="Group_16110" data-name="Group 16110">
    <path id="Path_1946" data-name="Path 1946" d="M63.436,17.342a.911.911,0,0,0-1.79.335.911.911,0,0,1-.895,1.08H46.929a.911.911,0,0,1-.895-1.08,9.4,9.4,0,0,1,1.278-3.161,7.2,7.2,0,0,0,1.238-3.863V9.288a5.3,5.3,0,0,1,5.2-5.281h.172a5.293,5.293,0,0,1,5.186,5.281v1.366a6.442,6.442,0,0,0,.915,3.256.911.911,0,1,0,1.6-.867,4.637,4.637,0,0,1-.7-2.39V9.288a7.112,7.112,0,0,0-6.192-7.046V.911a.911.911,0,1,0-1.821,0V2.244a7.136,7.136,0,0,0-6.192,7.044v1.366a5.49,5.49,0,0,1-1,2.959,11.065,11.065,0,0,0-1.487,3.73,2.732,2.732,0,0,0,2.685,3.237h4.188a2.732,2.732,0,1,0,5.463,0h4.171a2.733,2.733,0,0,0,2.685-3.237Zm-9.587,4.147a.912.912,0,0,1-.911-.911h1.821A.912.912,0,0,1,53.849,21.489Z" transform="translate(-44.197)" fill="#fff"/>
  </g>
</svg>
