<svg xmlns="http://www.w3.org/2000/svg" width="102" height="100.127" viewBox="0 0 102 100.127">
  <g id="oxygen-mask" transform="translate(-32 471.773)">
    <path id="Path_1538" data-name="Path 1538" d="M166.044-471.688a30.651,30.651,0,0,0-9.858,3.051,22.778,22.778,0,0,0-11.612,14.571c-.569,2.117-.592,2.322-.683,11.452l-.091,9.289.546.433a17.147,17.147,0,0,0,6.694,2.823c.683.114.774.023,1.548-1.229A19.519,19.519,0,0,1,164-440.087a14.251,14.251,0,0,1,5.35-.615,14.251,14.251,0,0,1,5.35.615A19.519,19.519,0,0,1,186.1-431.3c.774,1.252.865,1.343,1.548,1.229a17.147,17.147,0,0,0,6.694-2.823l.546-.433-.091-9.289c-.091-9.13-.114-9.335-.683-11.452-2.391-8.834-8.971-14.89-18.624-17.1A44.86,44.86,0,0,0,166.044-471.688Z" transform="translate(-86.346)" fill="#fff"/>
    <path id="Path_1539" data-name="Path 1539" d="M113.753-332.731c-1.5,1.5-1.753,2.345-1.753,5.646s.25,4.144,1.753,5.624c1.958,2,1.89,2.208,1.89-5.624S115.711-334.712,113.753-332.731Z" transform="translate(-61.786 -106.49)" fill="#fff"/>
    <path id="Path_1540" data-name="Path 1540" d="M384-327.085c0,7.832-.068,7.627,1.89,5.624,1.5-1.48,1.753-2.322,1.753-5.624s-.25-4.144-1.753-5.646C383.931-334.712,384-334.917,384-327.085Z" transform="translate(-271.856 -106.49)" fill="#fff"/>
    <path id="Path_1541" data-name="Path 1541" d="M189.368-319.554a19.444,19.444,0,0,0-3.757,1.389,12.808,12.808,0,0,0-4.121,3.005,14.43,14.43,0,0,0-3.461,4.963A32.648,32.648,0,0,0,174-294.3a24.945,24.945,0,0,0,1.252,8.7,18.891,18.891,0,0,0,14.5,11.885c.956.159,1.093.137,1.093-.2,0-.25-.228-.455-.569-.546-.82-.2-1.116-.842-1.935-4.235-.683-2.823-.82-3.119-1.548-3.734-1.321-1.116-1.412-1.571-1.412-7.422v-5.259l.569-.546.546-.569h12.34l.546.569.569.546v5.259c0,5.851-.091,6.307-1.412,7.422-.729.615-.865.911-1.548,3.734-.82,3.392-1.116,4.03-1.935,4.235-.342.091-.569.3-.569.546,0,.342.137.364,1.275.182a18.967,18.967,0,0,0,14.207-11.612c1.116-2.892,1.434-5.373,1.3-9.972a30.767,30.767,0,0,0-3.962-14.867,14.43,14.43,0,0,0-3.461-4.963,12.808,12.808,0,0,0-4.121-3.005A15.559,15.559,0,0,0,189.368-319.554Zm6.329,4.03a18.332,18.332,0,0,1,6.1,4.417,20.408,20.408,0,0,1,4.326,7.195c.933,2.709,1.116,4.28,1.116,9.335,0,4.485,0,4.508-.569,5.054a1.673,1.673,0,0,1-2.5,0c-.569-.546-.569-.569-.569-5.054,0-5.942-.5-8.2-2.527-11.612a17.526,17.526,0,0,0-7.741-6.466c-.774-.25-.933-.228-2.527.569a16.305,16.305,0,0,0-8.379,10.041c-.455,1.412-.546,2.231-.66,6.9-.137,5.237-.137,5.328-.683,5.76a1.765,1.765,0,0,1-2.413-.137c-.569-.546-.569-.569-.569-5.054,0-5.054.182-6.625,1.116-9.335a20.27,20.27,0,0,1,11.862-12.272C192.283-316.662,193.785-316.434,195.7-315.524Zm-5.419,10.746c1,.979.8,1.8-.865,3.461s-2.482,1.867-3.461.865c-1-.979-.8-1.8.865-3.461S189.3-305.779,190.279-304.777Zm8.242.865c1.662,1.662,1.867,2.482.865,3.461-.979,1-1.8.8-3.461-.865s-1.867-2.482-.865-3.461C196.039-305.779,196.859-305.574,198.521-303.912Z" transform="translate(-109.67 -117.3)" fill="#fff"/>
    <path id="Path_1542" data-name="Path 1542" d="M143.837-278.378a41.477,41.477,0,0,0,.5,6.307,38.145,38.145,0,0,0,1.981,6.284l.524,1.116.137-3.074a34.663,34.663,0,0,1,2.6-11.725l.524-1.207-1.5-.387a21.924,21.924,0,0,1-3.187-1.161L143.7-283Z" transform="translate(-86.268 -145.794)" fill="#fff"/>
    <path id="Path_1543" data-name="Path 1543" d="M345.318-282.163a17.8,17.8,0,0,1-3.1,1.138l-1.821.5.729,1.867A33.954,33.954,0,0,1,343.5-266.7c0,1.252.091,2.072.2,1.935a25.882,25.882,0,0,0,1.981-5.51,33.01,33.01,0,0,0,.956-9.4l-.068-3.119Z" transform="translate(-238.184 -145.948)" fill="#fff"/>
    <path id="Path_1544" data-name="Path 1544" d="M240-196.357v3.643h7.286V-200H240Z" transform="translate(-160.643 -209.896)" fill="#fff"/>
    <path id="Path_1545" data-name="Path 1545" d="M250.655-150.179c.364,1.412.546,1.821.865,1.821s.5-.41.865-1.821l.455-1.821H250.2Z" transform="translate(-168.521 -246.968)" fill="#fff"/>
    <path id="Path_1546" data-name="Path 1546" d="M66.971-124.895a27.937,27.937,0,0,1-.592,3.347c-.114.2-2.846,2.117-6.079,4.258L54.426-113.4l-11.2,2.573L32-108.274v2.208H134v-2.208l-11.2-2.55c-10.951-2.527-11.27-2.6-12.7-3.529l-1.48-.956-1.3,1.275a15.244,15.244,0,0,1-5.988,3.575,11.5,11.5,0,0,1-4.667.615,11.5,11.5,0,0,1-4.667-.615,15.682,15.682,0,0,1-9.927-9.654,3.479,3.479,0,0,0-.66-1.434c-.091,0-1.047-.159-2.117-.342a23.455,23.455,0,0,1-10.678-4.963L67.381-127.9Z" transform="translate(0 -265.581)" fill="#fff"/>
    <path id="Path_1547" data-name="Path 1547" d="M278.156-125.535a22.685,22.685,0,0,1-10,4.44c-.8.091-1.161.25-1.161.478,0,.774,1.548,3.233,2.846,4.508a11.76,11.76,0,0,0,16.233.455l1.025-.933-2.892-1.913a22.488,22.488,0,0,1-3.074-2.254,20.687,20.687,0,0,1-.592-3.279A16.158,16.158,0,0,0,280-126.9,17.04,17.04,0,0,0,278.156-125.535Z" transform="translate(-181.496 -266.352)" fill="#fff"/>
  </g>
</svg>
