<?xml version="1.0" encoding="utf-8"?>
<!-- Generator: Adobe Illustrator 19.2.0, SVG Export Plug-In . SVG Version: 6.00 Build 0)  -->
<svg version="1.1" id="Layer_1" xmlns="http://www.w3.org/2000/svg" xmlns:xlink="http://www.w3.org/1999/xlink" x="0px" y="0px"
	 viewBox="0 0 135 135" style="enable-background:new 0 0 135 135;" xml:space="preserve">
<style type="text/css">
	.st0{fill:#FFFFFF;}
</style>
<path id="OPD" class="st0" d="M118.5,98.5l-4.9,30.7c-0.5,3-3.3,5.1-6.3,4.7c-3-0.5-5.1-3.3-4.7-6.3c0,0,0-0.1,0-0.1l3.9-24.8
	l-5.3-0.4c0.3,0.9,0.2-1.1,0.2,27.2c0,2.4-2,4.4-4.4,4.4c-2.4,0-4.4-2-4.4-4.4v-7.3H75.5v7.3c0,2.4-2,4.4-4.4,4.4
	c-2.4,0-4.4-2-4.4-4.4v-26c0-2.4,2-4.4,4.4-4.4h6.3c-1.3-1.2-1.9-2.9-1.6-4.6c0-1.2,1.5-12.2,4.5-30.6c-0.1,0-0.1,0-0.2-0.1
	c-0.6,0.7-1.4,1.1-2.4,1.1c-1.6-0.3-2.3-2.4-2.5-4.1c-0.2-0.2-0.3-0.3-0.5-0.5c-1.1,0.5-2.3,0.6-3.4,0.4l-22.5-5.3
	c-1.3-0.3-2.4-1.1-3.1-2.1l-9-13.1l5.3,15.7c1.1,3.2,4,3.5,5.8,4l3.6,0.8l-1.3,16.1L56.4,94c0.4,1.1,0.5,2.3,0.3,3.5L50,128.9
	c-0.7,3.4-4,5.6-7.4,4.9c-3.4-0.7-5.6-4-4.9-7.4c0,0,0-0.1,0-0.1L44,96.7l-7.6-20.9l-2.3-0.2l3.1,20.4c0.1,0.9,0.1,1.8-0.2,2.6
	l-8.3,30.7c-0.9,3.3-4.3,5.3-7.6,4.4c0,0,0,0,0,0c-3.3-0.9-5.3-4.4-4.4-7.7l8-29.4l-3.3-22l2.5-40.5c0.3-4.3,4.1-7.6,8.4-7.2
	c0,0,0,0,0,0L46.2,28c4.3,0.4,7.5,4.2,7.2,8.5L53,40.7l-7.7-6.4l7.8,11.5l17.8,4.2c-2.1-6.6-6-12.4-12.2-15.5
	c-5.2-2.6-9.6-6.7-12.4-11.8c-5.9-0.7-10.2-6.1-9.5-12c0.7-5.9,6.1-10.2,12-9.5c5.4,0.6,9.5,5.2,9.5,10.7c0,0,0,0.1,0,0.1
	c2.1,3.3,5.7,10.4,8.5,23.1c4.4,4.5,7.5,10.2,8.8,16.3c0.5,0.4,1,0.9,1.4,1.5c0.9-1.3,2-2.1,3-1.9c1.7,0.3,2.7,2.9,2.5,6.1
	c1.6-1.7,3.9-2.5,6.2-2.2l12.1,2c3.8,0.6,6.3,4.2,5.7,8l-1.8,11.2l-4.7-1.8l-5.4-10.6l3.2,14.7l14.9,5.8c2.4,0.9,3.6,3.7,2.6,6.1
	c-0.3,0.7-0.7,1.3-1.3,1.8C117,92.6,119,95.5,118.5,98.5z M56.8,17.6c-1.3,2.2-3.4,3.8-5.8,4.6c2.7,4,6.4,7.1,10.8,9.1
	C60.5,26.5,58.9,22,56.8,17.6z M75.5,107.9v8.4h17.3v-8.4H75.5z M92.2,86.2c-1.4-0.6-2.5-1.8-2.8-3.3l-3.7-17.2l-0.8,18.2
	c-0.1,2.6,1.4,5,3.9,6l1,0.4l15.9,1.2L92.2,86.2z M98.4,51.3c-5.7,0.1-10.3-4.5-10.4-10.2s4.5-10.3,10.2-10.4
	c5.7-0.1,10.3,4.5,10.4,10.2c0,0,0,0.1,0,0.1C108.6,46.6,104,51.2,98.4,51.3L98.4,51.3z"/>
</svg>
