<svg xmlns="http://www.w3.org/2000/svg" width="22.207" height="22.191" viewBox="0 0 22.207 22.191">
  <g id="oral" transform="translate(-0.095 511.869)">
    <path id="Path_2421" data-name="Path 2421" d="M358.345-511.844a3.106,3.106,0,0,0-.942.378,2.74,2.74,0,0,0-.4.247c0,.022,4.934,8.588,4.969,8.622a4.487,4.487,0,0,0,1.067-.725,2.365,2.365,0,0,0,.551-2.434c-.056-.156-.729-1.367-1.488-2.69a14.327,14.327,0,0,0-1.692-2.712,2.69,2.69,0,0,0-.529-.425A2.7,2.7,0,0,0,358.345-511.844Z" transform="translate(-341.418)" fill="#50b4f8"/>
    <path id="Path_2422" data-name="Path 2422" d="M297.406-481.475a4.867,4.867,0,0,0-.707.464c.009.056,4.878,8.492,4.934,8.553.035.035.23-.056.772-.369a3.632,3.632,0,0,0,.716-.473c-.017-.078-4.947-8.605-4.973-8.6S297.8-481.7,297.406-481.475Z" transform="translate(-283.733 -28.668)" fill="#3e5496"/>
    <path id="Path_2423" data-name="Path 2423" d="M210.222-446.883a3.251,3.251,0,0,0-1.1,1.15,2.85,2.85,0,0,0-.291.911,1.64,1.64,0,0,1-.759,1.18l-.174.108.165.3c.091.161.82,1.428,1.619,2.812l1.454,2.517.282-.135a1.63,1.63,0,0,1,1.393,0,2.315,2.315,0,0,0,.95.165,2.794,2.794,0,0,0,.729-.069,4.035,4.035,0,0,0,.989-.456c.091-.074.069-.108-2.343-4.287-1.337-2.317-2.465-4.253-2.5-4.309l-.065-.1Z" transform="translate(-198.788 -61.958)" fill="#50b4f8"/>
    <path id="Path_2424" data-name="Path 2424" d="M126.988-364.652a1.419,1.419,0,0,0-.885.816,1.5,1.5,0,0,0-.009.864c.1.269,3.4,5.971,3.554,6.127a1.742,1.742,0,0,0,.378.26,1.3,1.3,0,0,0,1.107,0,1.3,1.3,0,0,0,.638-1.658c-.2-.434-3.376-5.9-3.528-6.053a1.224,1.224,0,0,0-.859-.378A1.427,1.427,0,0,0,126.988-364.652Z" transform="translate(-120.476 -140.805)" fill="#3e5496"/>
    <path id="Path_2425" data-name="Path 2425" d="M28.224-272.81c-1.085.855-1.992,1.6-2.048,1.684-.161.234-.117.451.182.976.36.629.508.751.894.72.13-.009,4.687-1.831,4.687-1.875s-1.679-2.951-1.731-3C30.189-274.325,29.3-273.652,28.224-272.81Z" transform="translate(-24.861 -227.252)" fill="#3e5496"/>
    <path id="Path_2426" data-name="Path 2426" d="M1.444-99.818a.712.712,0,0,0-.221.182A18.966,18.966,0,0,0,.156-97.618a1.639,1.639,0,0,0,.885,1.905,1.174,1.174,0,0,0,.7.139,1.243,1.243,0,0,0,.655-.113,1.693,1.693,0,0,0,.976-1.666,4.6,4.6,0,0,0-.733-1.606c-.347-.625-.438-.751-.577-.833A.625.625,0,0,0,1.444-99.818Z" transform="translate(0 -394.104)" fill="#50b4f8"/>
  </g>
</svg>
