<svg xmlns="http://www.w3.org/2000/svg" width="18.934" height="19" viewBox="0 0 18.934 19">
  <g id="printer-filled-tool-for-print-button" transform="translate(-1.128 512.019)">
    <path id="Path_1999" data-name="Path 1999" d="M120.832-511.966a1.306,1.306,0,0,0-.613.453c-.212.312-.219.368-.219,2.474v1.924h10.1v-.7a2.847,2.847,0,0,0-.264-1.53c-.149-.3-.212-.371-1.051-1.218-1.088-1.1-1.378-1.3-1.987-1.419C126.485-512.04,121.025-512.025,120.832-511.966Z" transform="translate(-114.457)" fill="#97a3b4"/>
    <path id="Path_2000" data-name="Path 2000" d="M1.977-342.7a1.175,1.175,0,0,0-.817.914c-.03.16-.037,1.289-.03,4.03l.011,3.807.1.208a1.188,1.188,0,0,0,.587.587c.208.1.208.1,1.333.108l1.122.011v-4.052H16.909v4.052l1.122-.011c1.125-.011,1.125-.011,1.333-.108a1.188,1.188,0,0,0,.587-.587l.1-.208.011-3.807c.007-2.741,0-3.87-.03-4.03a1.153,1.153,0,0,0-.613-.828l-.186-.1-8.58-.007C5.933-342.722,2.029-342.711,1.977-342.7Zm2.682,1.668a1.32,1.32,0,0,1,.579.594,1.276,1.276,0,0,1,0,1.018,1.153,1.153,0,0,1-1.033.691,1.17,1.17,0,0,1-1.17-.709,1.207,1.207,0,0,1,.635-1.608A1.334,1.334,0,0,1,4.659-341.029Z" transform="translate(0 -163.011)" fill="#97a3b4"/>
    <path id="Path_2001" data-name="Path 2001" d="M118-157.236v2.76l.085.123a.967.967,0,0,0,.186.2l.1.078h9.5l.1-.078a1.093,1.093,0,0,0,.189-.2l.082-.123V-160H118Zm7.741-.349a.558.558,0,0,1,.479.553.565.565,0,0,1-.323.527,12.314,12.314,0,0,1-2.771.071H120.5l-.163-.085a.568.568,0,0,1,.152-1.066C120.671-157.626,125.563-157.63,125.741-157.586Z" transform="translate(-112.531 -338.943)" fill="#97a3b4"/>
  </g>
</svg>
