<svg id="pulse-oximeter" xmlns="http://www.w3.org/2000/svg" width="20.318" height="26.688" viewBox="0 0 20.318 26.688">
  <path id="Path_1966" data-name="Path 1966" d="M64.256-511.837a3.941,3.941,0,0,0-3.024,3.066c-.073.375-.078,1.142-.063,7.482.016,6.95.021,7.076.13,7.639a10.658,10.658,0,0,0,1.893,4.354,12.976,12.976,0,0,0,1.961,1.971,10.142,10.142,0,0,0,10.626,1.059,10.263,10.263,0,0,0,5.563-7.383c.109-.563.115-.688.13-7.639.016-6.335.01-7.107-.063-7.477a3.933,3.933,0,0,0-3.061-3.076c-.355-.073-1.168-.084-7.065-.078C65.575-511.916,64.569-511.905,64.256-511.837Zm13.687,3.2a.7.7,0,0,1,.313.313c.1.2.1.292.1,6.622s0,6.419-.1,6.622a.7.7,0,0,1-.313.313c-.2.1-.292.1-6.627.1H64.9l-.209-.115a.84.84,0,0,1-.308-.313c-.094-.188-.1-.412-.1-6.622.005-7.227-.026-6.648.4-6.9l.2-.125h6.429C77.651-508.745,77.74-508.745,77.943-508.641Zm-6.142,15.6a2.294,2.294,0,0,1,1.163.647,2.325,2.325,0,0,1-1.272,3.947,2.266,2.266,0,0,1-2.013-.662,2.286,2.286,0,0,1,0-3.285A2.267,2.267,0,0,1,71.8-493.046Z" transform="translate(-61.162 511.922)" fill="#97a3b4"/>
  <path id="Path_1967" data-name="Path 1967" d="M151-415.525v5.475h10.95V-421H151Zm4.276-3.806a.823.823,0,0,1,.417.678.823.823,0,0,1-.417.678c-.182.094-.308.1-1.152.1-.881,0-.959-.005-1.152-.115a.754.754,0,0,1-.01-1.324c.193-.12.245-.125,1.158-.125C154.973-419.436,155.093-419.425,155.276-419.331Zm4.693,0a.823.823,0,0,1,.417.678.823.823,0,0,1-.417.678c-.182.094-.308.1-1.152.1-.881,0-.959-.005-1.152-.115a.754.754,0,0,1-.01-1.324c.193-.12.245-.125,1.158-.125C159.666-419.436,159.786-419.425,159.968-419.331Zm-4.693,3.128a.823.823,0,0,1,.417.678.823.823,0,0,1-.417.678c-.182.094-.308.1-1.152.1-.881,0-.959-.005-1.152-.115a.754.754,0,0,1-.01-1.324c.193-.12.245-.125,1.158-.125C154.973-416.307,155.093-416.3,155.276-416.2Zm4.693,0a.823.823,0,0,1,.417.678.823.823,0,0,1-.417.678c-.182.094-.308.1-1.152.1-.881,0-.959-.005-1.152-.115a.754.754,0,0,1-.01-1.324c.193-.12.245-.125,1.158-.125C159.666-416.307,159.786-416.3,159.968-416.2Zm-4.693,3.129a.823.823,0,0,1,.417.678.823.823,0,0,1-.417.678c-.182.094-.308.1-1.152.1-.881,0-.959-.005-1.152-.115a.754.754,0,0,1-.01-1.324c.193-.12.245-.125,1.158-.125C154.973-413.179,155.093-413.168,155.276-413.075Zm4.693,0a.823.823,0,0,1,.417.678.823.823,0,0,1-.417.678c-.182.094-.308.1-1.152.1-.881,0-.959-.005-1.152-.115a.754.754,0,0,1-.01-1.324c.193-.12.245-.125,1.158-.125C159.666-413.179,159.786-413.168,159.968-413.075Z" transform="translate(-146.316 425.741)" fill="#97a3b4"/>
  <path id="Path_1968" data-name="Path 1968" d="M241.407-120.76a.835.835,0,0,0-.407.673.823.823,0,0,0,.417.678.976.976,0,0,0,.365.1.823.823,0,0,0,.678-.417.976.976,0,0,0,.1-.365.823.823,0,0,0-.417-.678A.737.737,0,0,0,241.407-120.76Z" transform="translate(-231.623 141.253)" fill="#97a3b4"/>
</svg>
