<svg xmlns="http://www.w3.org/2000/svg" width="11" height="11" viewBox="0 0 11 11">
  <path id="pulse" d="M1724.434,45.77a.563.563,0,0,1-.562-.564V43.8a.564.564,0,0,1,1.128,0v1.41a.564.564,0,0,1-.566.564Zm-1.642,2.116a.564.564,0,0,1-.566-.564V41.68a.564.564,0,0,1,1.128,0v5.641A.563.563,0,0,1,1722.792,47.885ZM1721.146,50a.566.566,0,0,1-.566-.564V39.565a.564.564,0,1,1,1.127,0v9.872A.563.563,0,0,1,1721.146,50Zm-1.646-1.41a.566.566,0,0,1-.566-.564V40.975a.566.566,0,1,1,1.131,0v7.051A.566.566,0,0,1,1719.5,48.591Zm-1.646-1.411a.563.563,0,0,1-.562-.564v-4.23a.564.564,0,0,1,1.128,0v4.23a.566.566,0,0,1-.566.564Zm-1.646.707a.563.563,0,0,1-.562-.564V41.68a.564.564,0,0,1,1.128,0v5.641a.564.564,0,0,1-.566.564Zm-1.642-1.41a.564.564,0,0,1-.566-.566v-2.82a.564.564,0,1,1,1.127,0v2.82a.563.563,0,0,1-.562.564Z" transform="translate(-1714 -39.001)" fill="#1f2674"/>
</svg>
