<svg xmlns="http://www.w3.org/2000/svg" width="11" height="4.764" viewBox="0 0 11 4.764">
  <path id="RBS" d="M4.214,16.244a1.169,1.169,0,0,0-.057-.2l-.4-.918a.9.9,0,0,0-.143-.287,1.6,1.6,0,0,0-.143-.23L3.3,14.437a.462.462,0,0,0-.2-.115,1.484,1.484,0,0,0,.373-.172,1.233,1.233,0,0,0,.287-.258.97.97,0,0,0,.172-.344,2.215,2.215,0,0,0,.057-.43,1.34,1.34,0,0,0-.086-.488,1.627,1.627,0,0,0-.23-.373A1.092,1.092,0,0,0,3.3,12a2.423,2.423,0,0,0-.488-.143H1.087a.415.415,0,0,0-.2.057.326.326,0,0,0-.086.23V16.33c0,.029,0,.057.029.057a.062.062,0,0,0,.057.057.259.259,0,0,0,.143.029h.459c.057,0,.086-.029.143-.029.029,0,.057-.029.086-.057s.029-.029.029-.057V14.58h.287a.426.426,0,0,1,.258.057.515.515,0,0,1,.2.143,1.591,1.591,0,0,1,.172.23,3.366,3.366,0,0,1,.143.316l.43,1.033c0,.029.029.057.029.086,0-.029.029,0,.057,0a.259.259,0,0,0,.143.029h.516a.364.364,0,0,0,.172-.029.062.062,0,0,0,.057-.057c0-.029.029-.057,0-.057A.054.054,0,0,0,4.214,16.244ZM2.98,13.461a.515.515,0,0,1-.143.2,1.163,1.163,0,0,1-.258.143.788.788,0,0,1-.373.057H1.747v-1.32h.689c.057,0,.115.029.172.029a.571.571,0,0,1,.344.23.631.631,0,0,1,.115.373c-.029.115-.057.2-.086.287Zm5.25,1.176a2.14,2.14,0,0,0-.2-.344,1.123,1.123,0,0,0-.287-.23.814.814,0,0,0-.373-.115,1.34,1.34,0,0,0,.287-.143,1.325,1.325,0,0,0,.2-.2,1.019,1.019,0,0,0,.115-.258,1.22,1.22,0,0,0,.057-.316,1.125,1.125,0,0,0-.115-.516.958.958,0,0,0-.316-.373,1.042,1.042,0,0,0-.488-.2,2.028,2.028,0,0,0-.717-.057H5.218a.415.415,0,0,0-.2.057.326.326,0,0,0-.086.23v4.017a.326.326,0,0,0,.086.23.177.177,0,0,0,.2.057H6.452a3.118,3.118,0,0,0,.516-.029,2.39,2.39,0,0,0,.43-.115c.143-.057.258-.115.373-.172a2.587,2.587,0,0,0,.287-.258,2.14,2.14,0,0,0,.2-.344,1.507,1.507,0,0,0-.029-.918ZM7.055,13.375a.462.462,0,0,1-.115.2.515.515,0,0,1-.2.143,1.48,1.48,0,0,1-.316.057H5.907V12.572h.488a1.4,1.4,0,0,1,.344.029.859.859,0,0,1,.23.115.761.761,0,0,1,.143.172.838.838,0,0,1,.057.258.261.261,0,0,0-.115.23Zm.2,2.008a.515.515,0,0,1-.143.2.577.577,0,0,1-.23.115.706.706,0,0,1-.344.029H5.85V14.437h.574a1.115,1.115,0,0,1,.43.057.466.466,0,0,1,.258.143c.057.057.115.143.172.2a1.019,1.019,0,0,1,.057.287.912.912,0,0,1-.086.258Zm4.476-.8a1.032,1.032,0,0,0-.23-.344.9.9,0,0,0-.316-.258c-.115-.057-.23-.143-.373-.2-.115-.057-.258-.115-.373-.172a3.13,3.13,0,0,1-.316-.172.773.773,0,0,1-.23-.2.463.463,0,0,1-.086-.258.488.488,0,0,1,.029-.2.6.6,0,0,1,.115-.172.462.462,0,0,1,.2-.115.794.794,0,0,1,.258-.029,1.679,1.679,0,0,1,.373.057,1.2,1.2,0,0,1,.287.115,1.247,1.247,0,0,1,.2.115.218.218,0,0,0,.115.057c.029,0,.057,0,.057-.029.029-.029.029-.029.029-.057s.029-.086.029-.115v-.43c0-.029,0-.057-.029-.057a.062.062,0,0,0-.057-.057c-.057-.029-.086-.057-.143-.086l-.258-.086a1.22,1.22,0,0,0-.316-.057,2.121,2.121,0,0,0-.947.057,1.6,1.6,0,0,0-.488.258,1.27,1.27,0,0,0-.344.43,1.285,1.285,0,0,0-.115.574,1.34,1.34,0,0,0,.086.488,1.627,1.627,0,0,0,.23.373.9.9,0,0,0,.316.258,1.546,1.546,0,0,0,.373.2c.115.057.258.115.373.172s.2.115.316.172a.773.773,0,0,1,.23.2.463.463,0,0,1,.086.258.838.838,0,0,1-.057.258.294.294,0,0,1-.143.172.577.577,0,0,1-.23.115,1.177,1.177,0,0,1-.316.029,2.511,2.511,0,0,1-.459-.057,1.755,1.755,0,0,1-.344-.143.625.625,0,0,1-.23-.143.219.219,0,0,0-.143-.057c-.029,0-.057,0-.057.029l-.057.057c0,.029-.029.086-.029.115v.172a.794.794,0,0,0,.029.258c0,.057.029.086.057.143.057.029.086.086.143.115a1.019,1.019,0,0,0,.258.115,1.423,1.423,0,0,0,.373.086,2.319,2.319,0,0,0,.459.029,2.446,2.446,0,0,0,.66-.086,1.429,1.429,0,0,0,.545-.287,1.46,1.46,0,0,0,.373-.459,1.679,1.679,0,0,0,.143-.631A1.03,1.03,0,0,0,11.731,14.58Z" transform="translate(-0.8 -11.796)" fill="#1f2674"/>
</svg>
