<svg xmlns="http://www.w3.org/2000/svg" width="10" height="9.536" viewBox="0 0 10 9.536">
  <g id="write" transform="translate(-0.438 499.967)">
    <path id="Path_2140" data-name="Path 2140" d="M239.843-499.932a.5.5,0,0,0-.129.094,8.205,8.205,0,0,0-.522.907c0,.012.227.149.495.3.377.217.495.276.51.258s.137-.221.274-.461c.24-.42.252-.444.25-.547,0-.2-.064-.27-.379-.452C240.09-499.975,239.98-500,239.843-499.932Z" transform="translate(-234.087 0)" fill="#212775"/>
    <path id="Path_2141" data-name="Path 2141" d="M104.367-417.6c-.639,1.11-1.167,2.025-1.169,2.035s.287.014.671.012l.676-.006.948-1.642,1.007-1.742.057-.1-.481-.278c-.264-.152-.495-.281-.512-.285S105.266-419.153,104.367-417.6Z" transform="translate(-100.751 -78.793)" fill="#212775"/>
    <path id="Path_2142" data-name="Path 2142" d="M3.333-380.768c-.176.039-.254.088-.77.475a3.3,3.3,0,0,0-.862.784c-.09.131-1.189,2.1-1.233,2.207a.856.856,0,0,0,.018.495.681.681,0,0,0,.26.307.351.351,0,0,0,.457-.039c.022-.023.581-.981,1.243-2.127a13.415,13.415,0,0,0,1.163-2.1A.926.926,0,0,0,3.333-380.768Z" transform="translate(0 -116.859)" fill="#212775"/>
    <path id="Path_2143" data-name="Path 2143" d="M75.9-347.679c-.418.727-.764,1.329-.768,1.339a.788.788,0,0,0,.242.018.686.686,0,0,1,.33.039.31.31,0,0,1,.166.252.356.356,0,0,1-.131.248,5.577,5.577,0,0,1-1.394.047l-1.339.01-.111.053a.736.736,0,0,0-.34.323.5.5,0,0,0-.057.3.561.561,0,0,0,.043.278.8.8,0,0,0,.336.342l.109.055,1.339.01,1.339.01.287.143a4.054,4.054,0,0,0,3.11.223l.219-.074.006-1.91,0-1.91H78.83l-1.071-.557c-.59-.307-1.077-.557-1.083-.557S76.322-348.406,75.9-347.679Z" transform="translate(-70.653 -148.015)" fill="#212775"/>
    <path id="Path_2144" data-name="Path 2144" d="M450.16-321.967a.346.346,0,0,0-.108.092l-.043.061L450-319.58l0,2.236.043.076c.076.135.147.154.559.154s.485-.016.561-.147l.049-.082v-4.434l-.045-.076c-.078-.137-.125-.149-.561-.149A1.182,1.182,0,0,0,450.16-321.967Z" transform="translate(-440.773 -174.488)" fill="#212775"/>
    <path id="Path_2145" data-name="Path 2145" d="M17.45-117.722l-.158.278-.147.614c-.08.336-.145.639-.145.67a.224.224,0,0,0,.342.2c.033-.02.262-.227.508-.459.446-.42.45-.424.581-.653l.133-.229-.123-.031a1.1,1.1,0,0,1-.369-.16,1.325,1.325,0,0,1-.383-.383L17.61-118Z" transform="translate(-16.238 -374.5)" fill="#212775"/>
    <path id="Path_2146" data-name="Path 2146" d="M111.992-81.666l-.192.332.045.049a.7.7,0,0,0,.627.137.7.7,0,0,0,.471-.479l.027-.106.023.1a.685.685,0,0,0,1.046.4.707.707,0,0,0,.3-.51l.014-.092-.16-.078-.158-.08h-1.849Z" transform="translate(-109.185 -409.796)" fill="#212775"/>
  </g>
</svg>
