<svg xmlns="http://www.w3.org/2000/svg" width="11" height="9.948" viewBox="0 0 11 9.948">
  <path id="respiratoryRate" d="M57.5,384.515c-.238.387-1.017.859-1.85-.381-.386-.576-2.129.523-2.359-1.384v-3.726l-.791-.816-.792.816v3.724c-.231,1.909-1.974.808-2.36,1.384-.833,1.24-1.611.768-1.851.381-2.037-3.292,2.822-8.542,2.822-8.542,1.388-1.431,1.388.048,1.388.048v2.465l.421-.434v-.433h.741v.433l.421.434v-2.465s0-1.479,1.387-.048C54.673,375.973,59.531,381.222,57.5,384.515Zm-5.369-7.773h.738v.439h-.738Zm0-.878h.738v.439h-.738v-.439Zm0-.877h.738v.44h-.738Z" transform="translate(-46.994 -374.987)" fill="#1f2674"/>
</svg>
