<svg xmlns="http://www.w3.org/2000/svg" width="18.241" height="25.447" viewBox="0 0 18.241 25.447">
  <g id="results" transform="translate(-72.5 511.944)">
    <path id="Path_2378" data-name="Path 2378" d="M148.5-511.872a4.194,4.194,0,0,0-3.441,3.983c-.025.5-.02.577.08.776a.712.712,0,0,0,.3.328l.194.109,3.679-.01c3.63-.015,3.684-.015,3.818-.119.313-.229.343-.323.333-.955a3.961,3.961,0,0,0-.388-1.745A4.219,4.219,0,0,0,148.5-511.872Z" transform="translate(-68.94 0)" fill="#00d983"/>
    <path id="Path_2379" data-name="Path 2379" d="M72.923-455.081a.876.876,0,0,0-.323.288c-.1.174-.1.224-.1,10.948v10.774l.1.134a1.355,1.355,0,0,0,.239.239c.134.1.149.1,7.428.119,6.866.01,7.3,0,7.468-.075a.878.878,0,0,0,.283-.259l.114-.169v-7.045h-.259a3.627,3.627,0,0,1-1.323-.308,4.112,4.112,0,0,1-2.357-2.7,3.309,3.309,0,0,1-.109-1.014,4.516,4.516,0,0,1,.447-2.024,24.093,24.093,0,0,1,2.034-3.933,2.136,2.136,0,0,1,1.377-.706h.189v-1.894c0-2.118,0-2.133-.343-2.342-.164-.1-.249-.114-1.044-.129l-.865-.02.035.219A7.55,7.55,0,0,1,86-453.226a2.23,2.23,0,0,1-1.671,1.889,31.82,31.82,0,0,1-4.027.075c-3.983,0-3.938,0-4.47-.249a2.644,2.644,0,0,1-.945-.93,4.069,4.069,0,0,1-.149-2.59l.03-.159h-.815C73.211-455.19,73.126-455.18,72.923-455.081Zm9.377,5.39a.732.732,0,0,1,0,1.308c-.2.1-.283.1-3.192.1-2.829,0-2.988,0-3.187-.1a.734.734,0,0,1-.055-1.293c.159-.094.259-.1,3.212-.1A16.833,16.833,0,0,1,82.3-449.691Zm-2.933,3.033a.7.7,0,0,1,.338.612.677.677,0,0,1-.368.636c-.159.114-.189.114-1.71.114-1.372,0-1.566-.01-1.72-.089a.739.739,0,0,1,0-1.313c.159-.085.288-.089,1.75-.08C79.157-446.763,79.237-446.758,79.366-446.658Zm1.263,2.963a.706.706,0,0,1,.433.592.718.718,0,0,1-.333.676l-.164.114H78.3c-2.173,0-2.272,0-2.431-.1a.737.737,0,0,1,.184-1.342c.07-.025,1.079-.045,2.242-.045C80.4-443.8,80.41-443.8,80.629-443.695Zm-2.481,3.038a.737.737,0,0,1-.025,1.248c-.129.1-.2.1-1.114.1-.93,0-.989,0-1.158-.114a.737.737,0,0,1,.015-1.253c.149-.09.254-.1,1.139-.1C77.934-440.771,77.989-440.766,78.148-440.657Zm6.608,2.2a.76.76,0,0,1,.378.5c.07.373.03.428-1.268,1.73-1.347,1.352-1.412,1.4-1.82,1.278a4.572,4.572,0,0,1-1.328-1.283.653.653,0,0,1,.159-.805c.343-.343.756-.308,1.183.114l.209.2.86-.85c.467-.467.9-.875.955-.9A.978.978,0,0,1,84.756-438.459Z" transform="translate(0 -53.922)" fill="#00d983"/>
    <path id="Path_2380" data-name="Path 2380" d="M337.262-336.92a3.383,3.383,0,0,0-.631.979A11.835,11.835,0,0,0,335-331.874a2.677,2.677,0,0,0,1.83,2.466,3.118,3.118,0,0,0,1.437.03,2.59,2.59,0,0,0,1.84-3.137,19.9,19.9,0,0,0-2.128-4.37A.628.628,0,0,0,337.262-336.92Z" transform="translate(-249.449 -166.231)" fill="#00d983"/>
  </g>
</svg>
