<svg xmlns="http://www.w3.org/2000/svg" width="14.324" height="14.317" viewBox="0 0 14.324 14.317">
  <g id="loupe" transform="translate(-0.138 511.589)">
    <path id="Path_1984" data-name="Path 1984" d="M5.115-511.558A5.722,5.722,0,0,0,1.8-509.929a5.637,5.637,0,0,0-1.136,6.383,5.706,5.706,0,0,0,4.4,3.238,5.665,5.665,0,0,0,4.021-1.01,2.464,2.464,0,0,1,.271-.179c.011,0,.949.926,2.079,2.054,2.169,2.169,2.172,2.169,2.421,2.172a.8.8,0,0,0,.439-.185.8.8,0,0,0,.162-.417c0-.249,0-.252-2.172-2.421-1.128-1.131-2.054-2.065-2.054-2.076a2.622,2.622,0,0,1,.182-.277,5.57,5.57,0,0,0,1.049-3.263,5.618,5.618,0,0,0-1.671-4.03,5.667,5.667,0,0,0-3.115-1.59A7.144,7.144,0,0,0,5.115-511.558Zm1.343,1.2a4.478,4.478,0,0,1,3.056,1.937,4.281,4.281,0,0,1,.756,2.471,4.065,4.065,0,0,1-.132,1.119A4.484,4.484,0,0,1,6.906-501.6a4.067,4.067,0,0,1-1.119.132,4.281,4.281,0,0,1-2.471-.756,4.447,4.447,0,0,1-1.979-3.708,4.264,4.264,0,0,1,.5-2.06,4.533,4.533,0,0,1,2.784-2.258A4.928,4.928,0,0,1,6.458-510.355Z" transform="translate(0 0)" fill="#fff"/>
  </g>
</svg>
