<svg xmlns="http://www.w3.org/2000/svg" width="10.588" height="12.936" viewBox="0 0 10.588 12.936">
  <g id="pulse-oximeter-_1_" transform="translate(-61 511.926)">
    <path id="Path_2071" data-name="Path 2071" d="M62.227-511.874a1.5,1.5,0,0,0-.738.434,1.478,1.478,0,0,0-.434.749A48.033,48.033,0,0,0,61-505.475v5h.258a1.306,1.306,0,0,0,.98-.331,1.371,1.371,0,0,0,.361-.641c.022-.1.03-1.414.03-4.5V-510.3h7.33v4.357c0,3.144.008,4.4.03,4.5a1.194,1.194,0,0,0,.337.605,1.25,1.25,0,0,0,1,.367h.258v-5a48.026,48.026,0,0,0-.054-5.215,1.478,1.478,0,0,0-.434-.749,1.477,1.477,0,0,0-.749-.434,31.748,31.748,0,0,0-4.067-.052A33.829,33.829,0,0,0,62.227-511.874Z" transform="translate(0 0)" fill="#1f2674"/>
    <path id="Path_2072" data-name="Path 2072" d="M151-419.285v2.715h5.7V-422H151Zm2.465-1.86a1.559,1.559,0,0,1,.277.1l.1.054.147-.068a1.344,1.344,0,0,1,1.846,1.564c-.081.309-.176.426-1.11,1.36l-.877.877-.907-.909c-.8-.8-.915-.931-.988-1.086a1.341,1.341,0,0,1,1.189-1.925A1.74,1.74,0,0,1,153.465-421.145Z" transform="translate(-87.557 -87.485)" fill="#1f2674"/>
    <path id="Path_2073" data-name="Path 2073" d="M211.387-361.971a.511.511,0,0,0-.258.692,5.656,5.656,0,0,0,.611.668l.557.557.557-.557a5.656,5.656,0,0,0,.611-.668.52.52,0,0,0-.692-.69,1.223,1.223,0,0,0-.288.255,1.912,1.912,0,0,1-.187.2,1.911,1.911,0,0,1-.187-.2C211.849-362.012,211.64-362.088,211.387-361.971Z" transform="translate(-146.003 -145.833)" fill="#1f2674"/>
    <path id="Path_2074" data-name="Path 2074" d="M151-191.43v.57h5.7V-192H151Z" transform="translate(-87.557 -311.24)" fill="#1f2674"/>
    <path id="Path_2075" data-name="Path 2075" d="M63.327-119.758a2.092,2.092,0,0,1-1.094,1.211,2.045,2.045,0,0,1-.844.168l-.388.016v.658H71.588v-.658l-.386-.016a1.946,1.946,0,0,1-1.493-.635,2.018,2.018,0,0,1-.5-.893L69.194-120H63.4Z" transform="translate(0 -381.286)" fill="#1f2674"/>
  </g>
</svg>
