<svg xmlns="http://www.w3.org/2000/svg" width="10.999" height="14" viewBox="0 0 10.999 14">
  <g id="palm-of-hand" transform="translate(-55.008 511.789)">
    <path id="Path_2147" data-name="Path 2147" d="M60.605-511.729a.841.841,0,0,0-.429.394l-.066.129L60.1-508.5c-.014,2.853-.011,2.79-.137,2.859a.364.364,0,0,1-.274,0c-.123-.066-.123-.038-.137-2.325l-.014-2.175-.085-.15a.808.808,0,0,0-1.439.052l-.063.126-.014,3.458-.014,3.458-.547-.75c-.643-.881-.752-1.007-1-1.127a.743.743,0,0,0-.454-.088.662.662,0,0,0-.41.074,1.034,1.034,0,0,0-.449.5,1.2,1.2,0,0,0,.055.873c.066.126,2.634,4,2.766,4.18a4.235,4.235,0,0,0,1.63,1.3,6.416,6.416,0,0,0,3.575.342,3.4,3.4,0,0,0,2.774-2.56c.142-.536.14-.41.14-4.62l0-3.928-.066-.14a.726.726,0,0,0-.353-.388.572.572,0,0,0-.378-.082.576.576,0,0,0-.383.085.96.96,0,0,0-.386.443,18.946,18.946,0,0,0-.052,2l-.014,1.9-.077.066a.252.252,0,0,1-.339,0l-.077-.066-.014-2.719a13.464,13.464,0,0,0-.071-2.842.886.886,0,0,0-.386-.408.929.929,0,0,0-.711-.005.9.9,0,0,0-.38.4l-.066.139v2.355c0,1.3-.008,2.394-.016,2.443a.268.268,0,0,1-.44.156l-.077-.066-.014-2.719a13.628,13.628,0,0,0-.071-2.842.815.815,0,0,0-.7-.481A.615.615,0,0,0,60.605-511.729Z" transform="translate(0 0)" fill="#e20000"/>
  </g>
</svg>
