<svg xmlns="http://www.w3.org/2000/svg" width="10" height="9.999" viewBox="0 0 10 9.999">
  <g id="medication" transform="translate(0 511.903)">
    <path id="Path_2123" data-name="Path 2123" d="M237.628-511.866a1.7,1.7,0,0,0-.674.367c-.1.086-.691.672-1.32,1.3-1.246,1.254-1.273,1.285-1.387,1.615a1.511,1.511,0,0,0-.066.8,1.576,1.576,0,0,0,2.129,1.184c.289-.111.361-.174,1.57-1.377.627-.625,1.209-1.215,1.295-1.311a1.518,1.518,0,0,0,.406-1.064,1.463,1.463,0,0,0-.168-.723,1.162,1.162,0,0,0-.289-.381,1.167,1.167,0,0,0-.383-.289,1.413,1.413,0,0,0-.73-.168A1.549,1.549,0,0,0,237.628-511.866Zm.65.859a.772.772,0,0,1,.219.139.715.715,0,0,1,.162.848,6.07,6.07,0,0,1-.51.553l-.473.473-.5-.5-.5-.5.455-.455a6.822,6.822,0,0,1,.537-.506A.7.7,0,0,1,238.278-511.007Zm-1.705,2.119.5.5-.467.467c-.555.557-.59.578-.881.578a.528.528,0,0,1-.287-.053.817.817,0,0,1-.363-.363.529.529,0,0,1-.053-.287c0-.289.014-.311.564-.865.258-.26.475-.473.48-.473S236.3-509.161,236.573-508.888Z" transform="translate(-229.581 0)" fill="#212775"/>
    <path id="Path_2124" data-name="Path 2124" d="M.061-256.239,0-256.181v2.014a9.217,9.217,0,0,0,.037,2.033,4.143,4.143,0,0,0,.572.02c.5,0,.537,0,.6-.039a.233.233,0,0,0,.082-.082c.01-.025.23-.793.488-1.705.508-1.791.5-1.734.412-1.9-.078-.152-.187-.209-.607-.312a4.193,4.193,0,0,0-1.049-.133L.119-256.3Z" transform="translate(0 -250.611)" fill="#212775"/>
    <path id="Path_2125" data-name="Path 2125" d="M101.951-217.689c-.006.041-.2.748-.436,1.572s-.422,1.5-.418,1.506c.021.021.844.371,1.2.51a9.92,9.92,0,0,0,1.832.566,2.747,2.747,0,0,0,1.16-.08,11.859,11.859,0,0,0,3.721-1.785c.111-.109.111-.109.111-.225a.473.473,0,0,0-.156-.361,1.1,1.1,0,0,0-.973-.2,9.292,9.292,0,0,0-1.615.59,3.7,3.7,0,0,1-1.455.422,2.376,2.376,0,0,1-.834-.176c-.293-.109-.926-.439-.787-.41.178.037.932.135,1.25.162.881.074,1.236-.068,1.238-.5a.549.549,0,0,0-.191-.447,2.663,2.663,0,0,0-1.414-.471l-.262-.039-.266-.154c-.146-.084-.314-.178-.373-.207a3.353,3.353,0,0,0-1.027-.3c-.1-.012-.2-.025-.236-.031C101.962-217.764,101.958-217.762,101.951-217.689Z" transform="translate(-99.122 -288.399)" fill="#212775"/>
  </g>
</svg>
