<svg xmlns="http://www.w3.org/2000/svg" width="16.091" height="22.19" viewBox="0 0 16.091 22.19">
  <g id="SYRUP" transform="translate(-208.224 -85.81)">
    <g id="cough-syrup" transform="translate(123.224 577.81)">
      <path id="Path_2410" data-name="Path 2410" d="M112.212-491.911c-.137.136-.155.306-.137,1.3.014.81.024.913.1,1s.1.1,3.3.1c1.765,0,3.229-.019,3.257-.038.137-.089.16-.259.16-1.233,0-.993,0-.993-.118-1.106l-.113-.118h-3.182C112.4-492,112.3-492,112.212-491.911Z" transform="translate(-25.795)" fill="#babdd6"/>
      <path id="Path_2411" data-name="Path 2411" d="M143-425.529v.471h3.907V-426H143Z" transform="translate(-55.27 -62.893)" fill="#3279ea"/>
      <path id="Path_2412" data-name="Path 2412" d="M86.718-392.049c-.466.523-.927,1.054-1.026,1.186a3.783,3.783,0,0,0-.6,1.3c-.089.391-.094.532-.094,6.265a60.8,60.8,0,0,0,.075,6.12,2.319,2.319,0,0,0,1.643,1.619,56.631,56.631,0,0,0,5.931,0,2.329,2.329,0,0,0,1.638-1.53l.1-.306.014-5.531c.014-5.785,0-6.313-.184-6.877-.226-.692-.4-.932-1.539-2.222L91.816-393H87.566Zm5.936,3.248a1.52,1.52,0,0,1,.65.692c.1.217.1.231.1,5.418v5.2l-.127.24a1.707,1.707,0,0,1-.739.7c-.212.1-.259.1-2.806.1a12.588,12.588,0,0,1-2.834-.085,1.661,1.661,0,0,1-.824-.763l-.108-.235v-5.155c0-4.364.009-5.178.066-5.319a1.657,1.657,0,0,1,.523-.687c.386-.254.334-.254,3.2-.24l2.66.009Z" transform="translate(0 -94.34)" fill="#3279ea"/>
      <path id="Path_2413" data-name="Path 2413" d="M118.546-294.889a1.03,1.03,0,0,0-.48.433c-.056.108-.066.923-.066,5.2v5.07l.113.193a.968.968,0,0,0,.3.3l.188.1h2.523c2.443,0,2.533,0,2.711-.094a.975.975,0,0,0,.315-.292l.132-.2v-10.177l-.127-.193a.936.936,0,0,0-.33-.292c-.207-.1-.254-.1-2.678-.094C119.794-294.931,118.621-294.908,118.546-294.889Z" transform="translate(-31.447 -187.791)" fill="#babdd6"/>
      <path id="Path_2414" data-name="Path 2414" d="M335.322-324.721a2.632,2.632,0,0,0-1.713,1.883,2.78,2.78,0,0,0-.108,1.012,3.615,3.615,0,0,0,.085.965,2.872,2.872,0,0,0,1.257,1.737c.207.108.292.184.315.278.014.066-.113,1.761-.287,3.766-.358,4.062-.358,3.9-.033,4.26a1.033,1.033,0,0,0,.852.381,1.074,1.074,0,0,0,1.064-.748c.075-.235.066-.362-.24-3.893-.174-2.01-.306-3.7-.287-3.761s.127-.169.315-.278a2.889,2.889,0,0,0,1.243-1.718,4.6,4.6,0,0,0,.052-1.723C337.548-324,336.437-324.956,335.322-324.721Z" transform="translate(-236.802 -159.371)" fill="#3279ea"/>
    </g>
    <text id="_" data-name="+" transform="translate(210 104)" fill="#d23f34" font-size="11" font-family="Aeonik-Regular, Aeonik"><tspan x="0" y="0">+</tspan></text>
  </g>
</svg>
