<svg xmlns="http://www.w3.org/2000/svg" width="20.671" height="22.279" viewBox="0 0 20.671 22.279">
  <g id="Tablet" transform="translate(0 0)">
    <path id="Path_2406" data-name="Path 2406" d="M24.032-511.546a5.967,5.967,0,0,0-4.835,4.029c-.266.811-.262.724-.279,3.693l-.017,2.738h8.384l.379-.362A8.256,8.256,0,0,1,29-502.481a10.074,10.074,0,0,1,1.5-.719l.227-.074v-1.339a7.635,7.635,0,0,0-.353-3.039,5.94,5.94,0,0,0-2.821-3.261,5.425,5.425,0,0,0-2.559-.658A7.418,7.418,0,0,0,24.032-511.546Z" transform="translate(-18.9 511.575)" fill="#0ed2b3"/>
    <path id="Path_2407" data-name="Path 2407" d="M201.708-299.713a6.58,6.58,0,0,0-5.572,4.068,7.056,7.056,0,0,0-.405,1.517l-.031.27h6.483c5.454,0,6.479-.009,6.479-.061a7.534,7.534,0,0,0-.645-2.193,6.78,6.78,0,0,0-3.065-2.991A6.585,6.585,0,0,0,201.708-299.713Z" transform="translate(-187.991 308.968)" fill="#ffe177"/>
    <path id="Path_2408" data-name="Path 2408" d="M18.917-238.266c.017,2.969.013,2.882.275,3.7a6.045,6.045,0,0,0,2.729,3.318,6.7,6.7,0,0,0,1.618.619,4.256,4.256,0,0,0,1.251.113,4.842,4.842,0,0,0,1.208-.1,6.036,6.036,0,0,0,1.452-.51l.31-.157-.275-.3a7.775,7.775,0,0,1-2.215-5.433,7.7,7.7,0,0,1,.8-3.466c.122-.253.231-.471.24-.493S24.655-241,22.61-241H18.9Z" transform="translate(-18.9 252.797)" fill="#0ed2b3"/>
    <path id="Path_2409" data-name="Path 2409" d="M196-134.86a3.793,3.793,0,0,0,.087.536,6.279,6.279,0,0,0,1.783,3.253,6.338,6.338,0,0,0,3.318,1.809,9.443,9.443,0,0,0,2.529,0,6.554,6.554,0,0,0,5.145-5.162c.048-.249.087-.484.087-.519,0-.052-.85-.061-6.475-.061H196Z" transform="translate(-188.278 151.419)" fill="#fd3581"/>
  </g>
</svg>
