<svg xmlns="http://www.w3.org/2000/svg" width="8.568" height="15.726" viewBox="0 0 8.568 15.726">
  <path id="temprature" d="M57.283,337.893A4.375,4.375,0,0,1,53,333.432a4.535,4.535,0,0,1,1.428-3.326v-5.084a2.855,2.855,0,0,1,5.711,0v5.084a4.535,4.535,0,0,1,1.428,3.326A4.375,4.375,0,0,1,57.283,337.893Zm1.9-6.679-.475-.443v-5.749a1.428,1.428,0,0,0-2.855,0v5.749l-.475.443a3.018,3.018,0,0,0-.952,2.217,2.855,2.855,0,1,0,5.711,0,3.017,3.017,0,0,0-.952-2.217Zm-1.9,4.448a2.187,2.187,0,0,1-2.141-2.231,2.226,2.226,0,0,1,1.428-2.1V326H58v5.33a2.226,2.226,0,0,1,1.428,2.1A2.187,2.187,0,0,1,57.283,335.663Z" transform="translate(-52.999 -322.167)" fill="#1f2674"/>
</svg>
