<svg xmlns="http://www.w3.org/2000/svg" width="11" height="11.003" viewBox="0 0 11 11.003">
  <g id="time" transform="translate(-0.166 511.877)">
    <path id="Path_2138" data-name="Path 2138" d="M5.032-511.856a5.555,5.555,0,0,0-2.816,1.176,7.9,7.9,0,0,0-.927.95,5.457,5.457,0,0,0-1.1,2.687,7.9,7.9,0,0,0,.021,1.516,5.537,5.537,0,0,0,1.46,2.947,5.481,5.481,0,0,0,3.1,1.647,7.015,7.015,0,0,0,1.563.028,5.513,5.513,0,0,0,4.813-4.884,8.359,8.359,0,0,0-.03-1.434,5.538,5.538,0,0,0-4.764-4.624A8.781,8.781,0,0,0,5.032-511.856Zm1.01,1.051A4.462,4.462,0,0,1,9.935-507.6a3.937,3.937,0,0,1,.166,1.221,3.937,3.937,0,0,1-.166,1.221,4.319,4.319,0,0,1-1.1,1.883,4.252,4.252,0,0,1-1.219.884,4.152,4.152,0,0,1-1.956.449,3.962,3.962,0,0,1-1.178-.159,4.338,4.338,0,0,1-1.915-1.114,4.275,4.275,0,0,1-.884-1.219,4.172,4.172,0,0,1-.449-1.946,4.172,4.172,0,0,1,.449-1.946A4.455,4.455,0,0,1,6.042-510.8Z" fill="#212775"/>
    <path id="Path_2139" data-name="Path 2139" d="M81.943-433.153a3.823,3.823,0,0,0-3.128,3.315l-.015.12.383.009c.35.006.391.011.46.054a.308.308,0,0,1,0,.533c-.062.039-.118.043-.456.049l-.383.009.015.12a3.831,3.831,0,0,0,3.347,3.347l.12.015.009-.383c.006-.338.011-.393.049-.456a.311.311,0,0,1,.537,0c.039.062.043.118.049.456l.009.383.12-.015a3.827,3.827,0,0,0,3.347-3.347l.015-.12-.383-.009c-.338-.006-.393-.011-.456-.049a.311.311,0,0,1,0-.537c.062-.039.118-.043.456-.049l.383-.009-.015-.12a3.827,3.827,0,0,0-3.347-3.347l-.12-.015-.009.383c-.006.35-.011.391-.054.46a.308.308,0,0,1-.533,0c-.039-.062-.043-.118-.049-.454l-.009-.381-.056,0C82.195-433.194,82.068-433.174,81.943-433.153Zm2.539,1.733a.317.317,0,0,1,.14.342c-.013.065-.155.221-.9.985-.484.5-.912.929-.95.954a.313.313,0,0,1-.318.011c-.127-.082-1.359-1.176-1.4-1.238a.308.308,0,0,1,.355-.439,5.51,5.51,0,0,1,.628.509l.55.482.55-.568c.3-.312.654-.673.778-.8C84.207-431.474,84.3-431.512,84.482-431.42Z" transform="translate(-76.944 -76.986)" fill="#212775"/>
  </g>
</svg>
