<svg xmlns="http://www.w3.org/2000/svg" width="11" height="11.214" viewBox="0 0 11 11.214">
  <g id="weight" transform="translate(-46.681 469.596)">
    <path id="Path_2126" data-name="Path 2126" d="M172.611-469.58a2.255,2.255,0,0,0-1.854,1.667,1.809,1.809,0,0,0-.058.564,1.809,1.809,0,0,0,.058.565,2.248,2.248,0,0,0,1.617,1.617,1.882,1.882,0,0,0,.564.058,1.882,1.882,0,0,0,.564-.058,2.248,2.248,0,0,0,1.617-1.617,2.641,2.641,0,0,0,0-1.129,2.241,2.241,0,0,0-1.617-1.615A2.8,2.8,0,0,0,172.611-469.58Zm1.3,1.166a.259.259,0,0,1,.105.339,2.729,2.729,0,0,1-.281.312l-.252.257,0,.152a.538.538,0,0,1-1,.273.536.536,0,0,1,.47-.806l.152,0,.257-.252a3.381,3.381,0,0,1,.307-.278A.251.251,0,0,1,173.908-468.414Z" transform="translate(-120.762 0)" fill="#212775"/>
    <path id="Path_2127" data-name="Path 2127" d="M48.063-406.166a1.723,1.723,0,0,0-1.3,1.087c-.123.352-.123.3.079,3.741.126,2.153.2,3.253.228,3.382a1.721,1.721,0,0,0,1.166,1.245l.2.06h7.509l.215-.074a1.878,1.878,0,0,0,.74-.486,1.85,1.85,0,0,0,.381-.746c.053-.242.42-6.435.4-6.7a1.686,1.686,0,0,0-1.147-1.452,2.326,2.326,0,0,0-.924-.087l-.7-.01.021.142c.011.076.018.3.018.507a2.079,2.079,0,0,1-.071.622,2.718,2.718,0,0,1-.709,1.247,2.788,2.788,0,0,1-1.3.764,2.055,2.055,0,0,1-.688.068,2.055,2.055,0,0,1-.688-.068,2.788,2.788,0,0,1-1.3-.764,2.7,2.7,0,0,1-.709-1.247,2.036,2.036,0,0,1-.071-.635,4.522,4.522,0,0,1,.018-.507l.021-.123-.625,0C48.48-406.19,48.139-406.179,48.063-406.166Zm.851,2.342a.906.906,0,0,1,.383.41.92.92,0,0,1,0,.638.845.845,0,0,1-1.032.454.966.966,0,0,1-.467-.417.6.6,0,0,1-.071-.357.587.587,0,0,1,.071-.354A.826.826,0,0,1,48.914-403.824Zm7.236-.026a1.039,1.039,0,0,1,.407.4.587.587,0,0,1,.071.354.6.6,0,0,1-.071.357.966.966,0,0,1-.467.417.84.84,0,0,1-1.016-.428.859.859,0,0,1-.016-.664A.84.84,0,0,1,56.15-403.85Zm-6.685,4.508a.8.8,0,0,1,.207,1.3.8.8,0,0,1-1.3-.21.591.591,0,0,1-.089-.368.747.747,0,0,1,.228-.562A.776.776,0,0,1,49.465-399.342Zm6.12-.026a1.1,1.1,0,0,1,.247.176.76.76,0,0,1,.242.575.6.6,0,0,1-.089.368.8.8,0,0,1-1.3.21.8.8,0,0,1-.092-1.05.832.832,0,0,1,.719-.344A1.06,1.06,0,0,1,55.585-399.368Z" transform="translate(0 -61.731)" fill="#212775"/>
    <path id="Path_2128" data-name="Path 2128" d="M106.218-298.962a.4.4,0,0,0-.095.144.3.3,0,0,0,.265.357.339.339,0,0,0,.276-.129.481.481,0,0,0,.026-.16.232.232,0,0,0-.131-.249A.282.282,0,0,0,106.218-298.962Z" transform="translate(-57.874 -166.078)" fill="#212775"/>
    <path id="Path_2129" data-name="Path 2129" d="M384.126-298.894c-.095.05-.126.113-.126.247a.232.232,0,0,0,.131.249.293.293,0,0,0,.42-.142A.292.292,0,0,0,384.126-298.894Z" transform="translate(-328.462 -166.181)" fill="#212775"/>
    <path id="Path_2130" data-name="Path 2130" d="M128.076-127.924a.232.232,0,0,0-.076.2.224.224,0,0,0,.074.2.29.29,0,1,0,.41-.41.224.224,0,0,0-.2-.074A.232.232,0,0,0,128.076-127.924Z" transform="translate(-79.184 -332.627)" fill="#212775"/>
    <path id="Path_2131" data-name="Path 2131" d="M362.292-127.926a.29.29,0,1,0,.41.41.224.224,0,0,0,.074-.2.232.232,0,0,0-.076-.2.232.232,0,0,0-.2-.076A.224.224,0,0,0,362.292-127.926Z" transform="translate(-307.237 -332.627)" fill="#212775"/>
  </g>
</svg>
