<svg xmlns="http://www.w3.org/2000/svg" width="101.707" height="105.023" viewBox="0 0 101.707 105.023">
  <g id="ventilator-_3_" transform="translate(-8 512)">
    <path id="Path_1531" data-name="Path 1531" d="M122.117-511.795a4.709,4.709,0,0,0-2.461,2.113l-.451.862-.062,14.564c-.041,10.5,0,14.871.164,15.671a4.128,4.128,0,0,0,.985,1.928c1.272,1.374,1.579,1.456,7.077,1.538l4.861.082v4.061l13.5-.041,13.477-.062.062-1.99.062-1.969,4.861-.082c4.492-.062,4.923-.1,5.682-.513a4.107,4.107,0,0,0,2.051-2.154c.267-.677.308-2.708.308-15.9v-15.138l-.615-1.046a3.276,3.276,0,0,0-1.682-1.6L168.864-512l-23.076.021C133.07-511.979,122.425-511.877,122.117-511.795Zm40.84,7.918.451.308v9.846c0,6.4-.082,9.989-.205,10.256-.205.39-.615.39-17.394.39-13.107,0-17.251-.062-17.435-.246s-.246-2.749-.246-10.236c0-8.82.041-10.03.328-10.318s2.113-.328,17.169-.328C160.557-504.205,162.547-504.164,162.957-503.877Z" transform="translate(-88.333)" fill="#fff"/>
    <path id="Path_1532" data-name="Path 1532" d="M13.8-385.47a4.341,4.341,0,0,0-1.231.513,23,23,0,0,0-4.287,4.349c-.205.492-.287,1.744-.287,4.82,0,3.938.041,4.205.472,4.984,2.113,3.733,10.5,3.672,12.41-.1.431-.841.451-1.169.451-4.984,0-4.861.021-4.82-2.523-7.261C16.513-385.367,15.425-385.86,13.8-385.47Z" transform="translate(0 -100.48)" fill="#fff"/>
    <path id="Path_1533" data-name="Path 1533" d="M412.4-349.63a4.091,4.091,0,0,0-1.313.759c-1.067.964-1.087,1.149-1.087,10.215,0,7.979.021,8.472.41,9.23a3.181,3.181,0,0,0,2.872,1.805l1.169.082.123,1.395a4.028,4.028,0,0,0,1.313,3.118c.862.82,1.518.985,3.836.985,1.805,0,2.236-.062,3.015-.472a4.312,4.312,0,0,0,2.031-3.836v-1.19L426-327.62a3.194,3.194,0,0,0,2.749-1.477c.41-.554.431-.841.492-9.21.021-4.759,0-8.861-.062-9.107a4.036,4.036,0,0,0-2.051-2.133c-.738-.349-1.456-.39-7.384-.369C414.718-349.917,412.995-349.855,412.4-349.63Z" transform="translate(-319.541 -128.833)" fill="#fff"/>
    <path id="Path_1534" data-name="Path 1534" d="M139.015-301.513a4.655,4.655,0,0,0-2.626,2.277c-.369.8-.39,1.846-.39,26.174,0,24.2.021,25.374.39,26.174a4.474,4.474,0,0,0,2.933,2.338l.985.246v1.887c0,2.646-.082,2.585,3.938,2.585,3.938,0,3.856.062,3.856-2.626v-1.887h22.153v1.928c0,2.667-.123,2.585,3.774,2.585,2.338,0,3.22-.062,3.508-.287.328-.226.41-.615.472-2.236l.082-1.949.861-.226a4.322,4.322,0,0,0,2.79-2.072l.513-.923V-298.6l-.574-.964a4.255,4.255,0,0,0-1.538-1.538l-.964-.574-19.692-.041C144.779-301.739,139.59-301.7,139.015-301.513Zm35.261,8.246c.308.472.308.554,0,1.026a1.552,1.552,0,0,1-.985.615c-.369.062-7.036.1-14.789.062-13.7-.062-14.133-.082-14.42-.451a1.022,1.022,0,0,1,.041-1.436c.287-.287,1.928-.328,15.056-.328h14.769Zm-.533,6.666a1.022,1.022,0,0,1,.513,1.559l-.308.492H159.2c-14.359,0-14.728,0-15.1-.41a1.055,1.055,0,0,1,.369-1.641C145.128-286.868,173.25-286.868,173.742-286.6Zm.287,7.241a1.19,1.19,0,0,1,0,1.723c-.287.205-3.138.267-14.933.267-13.251,0-14.584-.021-14.933-.349a.933.933,0,0,1,.041-1.5c.41-.41.677-.41,14.933-.41C170.891-279.627,173.742-279.565,174.03-279.36Zm-.123,7.856.451.308v9.189c0,6.851-.062,9.23-.246,9.415s-3.815.246-15.076.246c-14.441,0-14.83,0-15.035-.39-.123-.267-.205-3.569-.205-9.333,0-8.677.021-8.964.41-9.354.41-.41.677-.41,14.83-.41C171.753-271.832,173.5-271.791,173.907-271.5Z" transform="translate(-101.744 -167.144)" fill="#fff"/>
    <path id="Path_1535" data-name="Path 1535" d="M185-137.41v7.59l13.087-.041,13.066-.062.062-7.548.041-7.528H185Z" transform="translate(-140.693 -291.72)" fill="#fff"/>
    <path id="Path_1536" data-name="Path 1536" d="M35-275.482c0,8.2.082,13.928.205,14.584a8.869,8.869,0,0,0,5.969,6.769,7.145,7.145,0,0,0,3.179.369,6.346,6.346,0,0,0,3.426-.841c3.528-1.744,5.046-4.759,5.067-10.154,0-1.354.062-1.682.308-1.682.267,0,.308-.8.308-6.051v-6.051H51.676c-2.113,0-3.118.369-4.1,1.5-.923,1.046-1.149,2.072-1.046,4.964.062,2.031.144,2.605.533,3.323a4.023,4.023,0,0,0,2.564,2.01l.862.246v2.749c0,2.523-.062,2.851-.533,3.877a6.337,6.337,0,0,1-3.2,3.323,5.04,5.04,0,0,1-2.708.656,6.645,6.645,0,0,1-6.113-3.733l-.574-1.169L37.3-274.908,37.236-289H35Z" transform="translate(-21.462 -177.258)" fill="#fff"/>
    <path id="Path_1537" data-name="Path 1537" d="M389.2-188.659c0,13.907-.021,14.5-.41,15.794a6.735,6.735,0,0,1-3.446,3.979,4.935,4.935,0,0,1-2.81.574,5.918,5.918,0,0,1-4.595-1.846c-1.579-1.477-1.949-2.523-2.031-5.887l-.082-2.81.8-.205a4.242,4.242,0,0,0,2.749-2.215c.451-.882.492-1.251.492-3.754,0-2.667-.021-2.81-.574-3.733-.882-1.518-2.031-2.072-4.39-2.174L373-191.018v6.072c0,5.251.041,6.072.308,6.072.246,0,.308.39.308,2.236a11.441,11.441,0,0,0,1.026,5.682,8.885,8.885,0,0,0,11.651,4.082,10.051,10.051,0,0,0,4.143-4.082c.985-1.99,1.046-3.22.985-18.276l-.062-13.743-1.067-.062L389.2-203.1Z" transform="translate(-290.13 -245.538)" fill="#fff"/>
  </g>
</svg>
