<svg xmlns="http://www.w3.org/2000/svg" width="25.192" height="19" viewBox="0 0 25.192 19">
  <g id="view-_2_" transform="translate(-2.5 420.64)">
    <path id="Path_1995" data-name="Path 1995" d="M14.259-420.626c-4.036.323-6.279,2.812-10.021,6.889-1.594,1.732-1.738,1.952-1.738,2.6s.144.872,1.738,2.6c3.476,3.782,5.292,6.167,9.155,6.785a14.011,14.011,0,0,0,3.407,0c3.863-.618,5.679-3,9.155-6.785,1.594-1.732,1.738-1.952,1.738-2.6s-.144-.872-1.738-2.6c-3.424-3.724-5.251-6.144-8.981-6.75A16.288,16.288,0,0,0,14.259-420.626Zm2,2.708a6.846,6.846,0,0,1,3.6,1.831,6.886,6.886,0,0,1,.964,8.76,6.891,6.891,0,0,1-10.688.964,6.743,6.743,0,0,1-1.917-4.77,6.875,6.875,0,0,1,5.688-6.785A8.894,8.894,0,0,1,16.263-417.918Z" transform="translate(0 0)" fill="#97a3b4"/>
    <path id="Path_1996" data-name="Path 1996" d="M177.888-337.57a4.793,4.793,0,0,0-3.644,3.713,5.95,5.95,0,0,0,.064,2.171,5.954,5.954,0,0,0,.912,1.761,5.158,5.158,0,0,0,2.466,1.6,6.845,6.845,0,0,0,2.425,0,6.065,6.065,0,0,0,1.79-.924,5.158,5.158,0,0,0,1.6-2.466,6.845,6.845,0,0,0,0-2.425,5.158,5.158,0,0,0-1.6-2.466,5.953,5.953,0,0,0-1.761-.912A6.7,6.7,0,0,0,177.888-337.57Zm.653,2.431-.017.791-.173.035a1.122,1.122,0,0,0-.872.855l-.035.185h-.774c-.889,0-.849.035-.687-.595a2.646,2.646,0,0,1,.716-1.259,2.6,2.6,0,0,1,1.594-.762c.1-.012.2-.029.219-.035A3.829,3.829,0,0,1,178.54-335.139Z" transform="translate(-163.802 -78.206)" fill="#97a3b4"/>
  </g>
</svg>
