<svg xmlns="http://www.w3.org/2000/svg" width="102" height="92.11" viewBox="0 0 102 92.11">
  <g id="Vitals" transform="translate(-0.437 486.612)">
    <path id="Path_1529" data-name="Path 1529" d="M26.221-486.39a29.906,29.906,0,0,0-17.393,9.1,29.932,29.932,0,0,0-7.919,14.8,33.687,33.687,0,0,0,0,11.23,33.813,33.813,0,0,0,3.89,9.993l.539.858H16.367l11.011-.02,2.094-3.491a23.869,23.869,0,0,1,2.653-3.91,2.9,2.9,0,0,1,3.072-.16c.678.379,1.416,1.416,5.047,7.1,2.334,3.67,4.289,6.662,4.368,6.662.06,0,2.753-5.585,5.984-12.427,3.211-6.822,6.064-12.726,6.3-13.125,1.257-1.955,3.91-1.755,5.166.379.3.519,2.713,4.967,5.366,9.914l4.827,8.976,12.606.06,12.586.04.8-1.4c5.445-9.415,5.585-20.146.4-29.262a31.08,31.08,0,0,0-20.565-15.06,34.224,34.224,0,0,0-11.23,0,33.547,33.547,0,0,0-13.783,6.542c-1.037.818-1.755,1.237-1.915,1.157-.12-.1-.718-.539-1.3-1.017a33.611,33.611,0,0,0-13.9-6.682A35.454,35.454,0,0,0,26.221-486.39Z" transform="translate(0)" fill="#fff"/>
    <path id="Path_1530" data-name="Path 1530" d="M93.8-300.029c-7.959,16.835-7.6,16.157-8.577,16.7a2.954,2.954,0,0,1-3.132-.14,83.422,83.422,0,0,1-4.947-7.281c-2.394-3.79-4.428-6.862-4.488-6.822a21.863,21.863,0,0,0-1.376,2.154,8.832,8.832,0,0,1-1.875,2.453c-.6.359-1.237.379-10.572.479l-9.933.1L68.827-272.6c17.573,17.433,20.026,19.787,20.685,19.927,1.8.339.8,1.237,22.041-19.947,10.811-10.751,19.687-19.628,19.707-19.727.04-.08-5.007-.14-11.23-.14-12.626,0-12.247.04-13.165-1.376-.259-.4-2.234-3.989-4.388-8-2.134-3.989-3.969-7.34-4.069-7.44C98.328-309.384,96.253-305.215,93.8-300.029Z" transform="translate(-38.796 -141.94)" fill="#fff"/>
  </g>
</svg>
