<svg xmlns="http://www.w3.org/2000/svg" width="24.641" height="24.643" viewBox="0 0 24.641 24.643">
  <g id="Watchable" transform="translate(0 512.035)">
    <path id="Path_2381" data-name="Path 2381" d="M1.66-511.966a2.051,2.051,0,0,0-1.015.582,2.056,2.056,0,0,0-.592,1.073c-.039.178-.053,2.089-.053,6.483v6.232H24.641v-6.232c0-4.461-.014-6.3-.053-6.483a2.2,2.2,0,0,0-1.67-1.67C22.528-512.062,1.988-512.048,1.66-511.966Zm16.772,2.195a.76.76,0,0,1,.385.626.769.769,0,0,1-.727.722.815.815,0,0,1-.626-.395.688.688,0,0,1,.274-.934A.654.654,0,0,1,18.433-509.771Zm2.888,0a.76.76,0,0,1,.385.626.769.769,0,0,1-.727.722.815.815,0,0,1-.626-.395.688.688,0,0,1,.274-.934A.654.654,0,0,1,21.32-509.771Zm-11.045,1.458c.183.1.241.2,1.083,1.872.491.977.9,1.771.914,1.771s.2-.419.424-.929c.472-1.1.525-1.2.746-1.3a.7.7,0,0,1,.659.014c.164.082.27.231.852,1.2.64,1.064.669,1.107.813,1.107s.154-.01.2-.27a1.975,1.975,0,0,1,2.647-1.439.391.391,0,0,0,.409,0,1.949,1.949,0,0,1,2.5,1.025,1.335,1.335,0,0,1,.154.78,2.077,2.077,0,0,1-.385,1.28,6.094,6.094,0,0,1-1.911,1.708c-.578.337-.852.265-1.848-.476a6.2,6.2,0,0,1-1.126-1.121,2.631,2.631,0,0,0-.674-.043c-.938,0-.938,0-1.458-.866l-.4-.679-.4.929c-.558,1.3-.592,1.367-.818,1.482a.673.673,0,0,1-.7-.014c-.183-.1-.241-.2-1.054-1.814l-.861-1.708-.683,2.045c-.375,1.126-.717,2.118-.765,2.2a.782.782,0,0,1-.606.351.9.9,0,0,1-.337-.1c-.231-.116-.231-.116-1.011-1.882-.322-.727-.606-1.357-.635-1.41-.039-.072-.111.019-.457.592-.52.866-.525.871-1.415.871-.563,0-.65-.01-.823-.106a.7.7,0,0,1,0-1.232.981.981,0,0,1,.544-.106h.356l.664-1.107c.582-.972.688-1.121.852-1.2a.674.674,0,0,1,.674,0c.226.116.255.168.963,1.766.274.616.51,1.121.525,1.121s.318-.871.674-1.94.683-2.017.732-2.113A.7.7,0,0,1,10.275-508.313Z" transform="translate(0)" fill="#401800"/>
    <path id="Path_2382" data-name="Path 2382" d="M361.346-365.4a.556.556,0,0,0-.346.5c0,.351.534,1.015,1.169,1.444l.274.188.274-.188c.64-.433,1.169-1.088,1.169-1.444a.52.52,0,0,0-.91-.337.729.729,0,0,1-.924.1c-.091-.063-.207-.149-.26-.188A.477.477,0,0,0,361.346-365.4Z" transform="translate(-343.626 -139.556)" fill="#401800"/>
    <path id="Path_2383" data-name="Path 2383" d="M0-179.4c0,2.512,0,2.608.1,2.791a.645.645,0,0,0,.289.289c.188.1.255.1,11.935.1s11.748,0,11.935-.1a.645.645,0,0,0,.289-.289c.091-.183.1-.279.1-2.791V-182H0Zm6.882-.337a.76.76,0,0,1,.385.626.76.76,0,0,1-.385.626c-.178.091-.279.1-1.786.1-1.564,0-1.6,0-1.786-.106a.7.7,0,0,1-.01-1.222c.188-.115.193-.115,1.79-.115C6.6-179.834,6.7-179.829,6.882-179.738Zm2.888,0a.76.76,0,0,1,.385.626.769.769,0,0,1-.727.722.815.815,0,0,1-.626-.395.688.688,0,0,1,.274-.934A.654.654,0,0,1,9.77-179.738Zm2.888,0a.76.76,0,0,1,.385.626.769.769,0,0,1-.727.722.815.815,0,0,1-.626-.395.688.688,0,0,1,.274-.934A.654.654,0,0,1,12.657-179.738Zm2.888,0a.76.76,0,0,1,.385.626.769.769,0,0,1-.727.722.815.815,0,0,1-.626-.395.688.688,0,0,1,.274-.934A.654.654,0,0,1,15.545-179.738Zm5.775,0a.76.76,0,0,1,.385.626.76.76,0,0,1-.385.626c-.178.091-.279.1-1.786.1-1.564,0-1.6,0-1.786-.106a.7.7,0,0,1-.01-1.222c.188-.115.193-.115,1.79-.115C21.041-179.834,21.142-179.829,21.32-179.738Z" transform="translate(0 -314.151)" fill="#401800"/>
    <path id="Path_2384" data-name="Path 2384" d="M40-31.519c0,.592.087.813.385.963.178.091.279.1,1.781.1s1.6,0,1.781-.1c.3-.149.385-.371.385-.963V-32H40Z" transform="translate(-38.075 -456.932)" fill="#401800"/>
    <path id="Path_2385" data-name="Path 2385" d="M382-31.519c0,.592.087.813.385.963.178.091.279.1,1.781.1s1.6,0,1.781-.1c.3-.149.385-.371.385-.963V-32H382Z" transform="translate(-363.616 -456.932)" fill="#401800"/>
  </g>
</svg>
