<svg xmlns="http://www.w3.org/2000/svg" xmlns:xlink="http://www.w3.org/1999/xlink" width="375" height="167" viewBox="0 0 375 167">
  <defs>
    <clipPath id="clip-path">
      <rect id="Rectangle_17104" data-name="Rectangle 17104" width="375" height="167" fill="#fff"/>
    </clipPath>
    <linearGradient id="linear-gradient" x1="0.5" x2="0.5" y2="1" gradientUnits="objectBoundingBox">
      <stop offset="0" stop-color="#161d6e"/>
      <stop offset="1" stop-color="#0e59d9"/>
    </linearGradient>
    <linearGradient id="linear-gradient-2" x1="0.5" x2="0.5" y2="1" gradientUnits="objectBoundingBox">
      <stop offset="0" stop-color="#161d6e"/>
      <stop offset="1" stop-color="#0e5ada"/>
    </linearGradient>
    <linearGradient id="linear-gradient-3" x1="1" y1="0.423" x2="0.176" y2="0.423" gradientUnits="objectBoundingBox">
      <stop offset="0" stop-color="#0e58d7"/>
      <stop offset="1" stop-color="#161d6e"/>
    </linearGradient>
    <linearGradient id="linear-gradient-4" x1="1" y1="0.381" x2="0" y2="0.381" gradientUnits="objectBoundingBox">
      <stop offset="0" stop-color="#0e5ada"/>
      <stop offset="1" stop-color="#161d6e"/>
    </linearGradient>
  </defs>
  <g id="Mask_Group_5" data-name="Mask Group 5" clip-path="url(#clip-path)">
    <g id="Group_16252" data-name="Group 16252" transform="translate(2244.171 238.628)">
      <path id="Path_2108" data-name="Path 2108" d="M381.1,73.324S274.361,22.541,159.7,42.338,0,0,0,0V406.141H379.083Z" transform="translate(-1867.868 -71.859) rotate(180)" opacity="0.2" fill="url(#linear-gradient)"/>
      <path id="Path_2109" data-name="Path 2109" d="M382.108,1.858s-63.6-12.949-161.9,29.516S0,9.2,0,9.2V375.01H379.083Z" transform="translate(-1866.859 -102.99) rotate(180)" opacity="0.4" fill="url(#linear-gradient-2)"/>
      <path id="Path_2110" data-name="Path 2110" d="M0,23.824S66.489-23.25,200.168,14.943s256.125,24.6,256.125,24.6l-1.008,338.868H76.167Z" transform="translate(-1791.731 -99.586) rotate(180)" opacity="0.7" fill="url(#linear-gradient-3)"/>
      <path id="Path_2111" data-name="Path 2111" d="M1.006,20.969s58.745-43.477,192.08-5.223S381.165,52.424,381.165,52.424l-1.006,329.362H0Z" transform="translate(-1866.859 -96.214) rotate(180)" opacity="0.7" fill="url(#linear-gradient-4)"/>
    </g>
  </g>
</svg>
