<svg xmlns="http://www.w3.org/2000/svg" width="11" height="12.037" viewBox="0 0 11 12.037">
  <path id="weight" d="M12.023.8H3.977A1.523,1.523,0,0,0,2.5,2.309v9.02a1.5,1.5,0,0,0,1.477,1.509h8.046A1.5,1.5,0,0,0,13.5,11.329V2.34A1.53,1.53,0,0,0,12.023.8ZM8,1.586a2.677,2.677,0,0,1,2.609,2.671.315.315,0,0,1-.314.314H5.706a.338.338,0,0,1-.314-.314h0A2.677,2.677,0,0,1,8,1.586ZM6.366,11.737c-.534.126-1.069-.377-1.257-1.069C4.763,9.223,3.914,8.594,3.726,7.651c-.22-1.1.22-2.137,1.006-2.294s1.6.6,1.823,1.7a16.77,16.77,0,0,0,.534,3.206A1.154,1.154,0,0,1,6.4,11.737Zm5.909-4.086c-.189.943-1.037,1.571-1.383,3.017-.157.691-.723,1.194-1.257,1.069a1.146,1.146,0,0,1-.723-1.477v-.031a16.77,16.77,0,0,0,.534-3.206c.22-1.1,1.037-1.854,1.823-1.7s1.257,1.226,1.006,2.326ZM7.686,3.063a.314.314,0,1,1,.629,0h0v.849H9.98a1.978,1.978,0,0,0-3.929,0H7.686Z" transform="translate(-2.5 -0.8)" fill="#1f2674"/>
</svg>
