<svg id="Group_16134" data-name="Group 16134" xmlns="http://www.w3.org/2000/svg" width="8.252" height="16.629" viewBox="0 0 8.252 16.629">
  <path id="Path_11" data-name="Path 11" d="M343.623-482.835a1.878,1.878,0,0,0-1,.564,1.926,1.926,0,0,0-.623,1.458,2,2,0,0,0,.542,1.4,1.964,1.964,0,0,0,1.528.667,1.757,1.757,0,0,0,.6-.077,2.085,2.085,0,0,0,1.466-1.971,1.936,1.936,0,0,0-.619-1.477A2,2,0,0,0,343.623-482.835Z" transform="translate(-339.958 482.886)" fill="#ff5891"/>
  <path id="Path_15" data-name="Path 15" d="M288.628-354.767c-.293.132-.344.227-1.359,2.59-.528,1.227-.967,2.29-.982,2.363a.727.727,0,0,0,.172.568.673.673,0,0,0,.7.231.779.779,0,0,0,.517-.465.892.892,0,0,1,.128-.22c0,.015-.092.531-.2,1.15a9.171,9.171,0,0,0-.176,1.22c.073.3.224.37.85.37h.476l.011,1.748a12.566,12.566,0,0,0,.059,1.861.812.812,0,0,0,.689.458.8.8,0,0,0,.63-.359l.1-.172.011-1.766.011-1.77h.249l.011,1.766.011,1.77.1.172a.73.73,0,0,0,1.286-.059c.081-.147.081-.176.092-1.9l.011-1.748h.517c.623,0,.733-.037.843-.282l.073-.161-.187-1.143c-.1-.626-.176-1.147-.169-1.154a.944.944,0,0,1,.143.242,1.339,1.339,0,0,0,.242.348.639.639,0,0,0,.942-.2.543.543,0,0,0,.1-.377,10.848,10.848,0,0,0-.953-2.524,16.49,16.49,0,0,0-1.085-2.455l-.136-.154-1.788-.007C288.892-354.836,288.767-354.833,288.628-354.767Z" transform="translate(-286.279 359.522)" fill="#ff5891"/>
</svg>
