<svg id="x-ray" xmlns="http://www.w3.org/2000/svg" width="23.859" height="23.864" viewBox="0 0 23.859 23.864">
  <path id="Path_1962" data-name="Path 1962" d="M2.554-511.59a2.615,2.615,0,0,0-1.947,1.718l-.107.313v19.75l.107.308a2.626,2.626,0,0,0,1.634,1.639l.313.107H22.3l.313-.107a2.626,2.626,0,0,0,1.634-1.639l.107-.308v-19.75l-.107-.313a2.659,2.659,0,0,0-1.625-1.634l-.275-.107-9.8,0C7.153-511.623,2.657-511.609,2.554-511.59Zm10.183,2.152c.247.149.3.322.3,1.046v.635l.177.075c.093.037.374.126.616.191a4.1,4.1,0,0,0,1.237.121c.962,0,1.032-.019,1.587-.542.444-.416.514-.458.78-.458a.687.687,0,0,1,.626.976,4.176,4.176,0,0,1-.514.551,2.775,2.775,0,0,1-1.475.836,7.668,7.668,0,0,1-2.334-.075c-.243-.051-.5-.107-.57-.121l-.131-.033v1.452l.341.14a6.082,6.082,0,0,0,2.834.476c1.5,0,1.606-.037,2.54-.91a5.1,5.1,0,0,1,.626-.523.684.684,0,0,1,.943.626c0,.3-.079.416-.64.948a3.856,3.856,0,0,1-1.924,1.172,5.939,5.939,0,0,1-1.527.089,7.615,7.615,0,0,1-2.689-.327c-.243-.075-.458-.14-.476-.14a7.837,7.837,0,0,0-.028.91v.91l.261.117a8.148,8.148,0,0,0,1.349.425,14.112,14.112,0,0,0,2.615.07,2.835,2.835,0,0,0,1.48-.887c.677-.635.864-.705,1.293-.472a.755.755,0,0,1,.2.939,11.379,11.379,0,0,1-1.275,1.2,4.218,4.218,0,0,1-1.125.532,4.535,4.535,0,0,1-1.275.121,8.687,8.687,0,0,1-3.464-.486c-.051-.019-.061.243-.061,1.429,0,.8.014,1.452.028,1.452s.472-.177,1.013-.392,1.125-.425,1.293-.472a6.66,6.66,0,0,1,1.863-.075,4.335,4.335,0,0,1,2.194,1.018,3.052,3.052,0,0,1,.374.574,1.414,1.414,0,0,1,.168.887,1.813,1.813,0,0,1-.107.8c-.14.35-.233.467-2.022,2.545-1.559,1.816-1.723,1.97-2.19,2.143a2.269,2.269,0,0,1-2.713-.971c-.21-.3-.294-.364-.528-.364-.266,0-.392.089-.658.467a2.2,2.2,0,0,1-1.545.976,2.292,2.292,0,0,1-1.564-.355c-.182-.121-3.362-3.782-3.576-4.123a2.26,2.26,0,0,1-.2-1.742,2.363,2.363,0,0,1,.719-1.069,4.6,4.6,0,0,1,2.708-.831,5.477,5.477,0,0,1,2.325.556c.523.21.966.378.985.378s.033-.63.033-1.4v-1.4l-.2.07a8.829,8.829,0,0,1-3.175.378,4.612,4.612,0,0,1-1.242-.121,4.218,4.218,0,0,1-1.125-.532,11.379,11.379,0,0,1-1.275-1.2.755.755,0,0,1,.2-.939c.43-.233.616-.163,1.293.472a2.835,2.835,0,0,0,1.48.887,14.414,14.414,0,0,0,2.638-.07,7.215,7.215,0,0,0,1.181-.364l.219-.093v-.934c0-.775-.009-.929-.065-.91a7.547,7.547,0,0,1-1.233.318,13.355,13.355,0,0,1-3.236,0,3.733,3.733,0,0,1-1.877-1.135c-.6-.556-.686-.682-.686-.976a.682.682,0,0,1,.943-.635,4.786,4.786,0,0,1,.63.528,2.887,2.887,0,0,0,1.191.817c.275.093.36.1,1.531.075a5.494,5.494,0,0,0,2.4-.359l.406-.149v-.742a4.208,4.208,0,0,0-.033-.742c-.023,0-.238.042-.481.1a7.816,7.816,0,0,1-2.334.07,2.814,2.814,0,0,1-1.466-.826,4.157,4.157,0,0,1-.518-.56.67.67,0,0,1,.509-.962c.327-.037.42.009.859.415.588.546.663.574,1.573.574a4.489,4.489,0,0,0,1.6-.219l.289-.089v-.593c0-.864.1-1.107.49-1.247A.67.67,0,0,1,12.737-509.438Z" transform="translate(-0.5 511.619)" fill="#97a3b4"/>
  <path id="Path_1963" data-name="Path 1963" d="M123.493-188.875a2.328,2.328,0,0,0-1.326.705.8.8,0,0,0-.014.728c.112.205,3.1,3.679,3.254,3.777a.908.908,0,0,0,.77-.009,1.328,1.328,0,0,0,.313-.3,1.973,1.973,0,0,1,1.9-1.064,1.949,1.949,0,0,1,1.615.971,1.72,1.72,0,0,0,.383.406.968.968,0,0,0,.766-.009c.121-.07,2.96-3.343,3.231-3.721a.858.858,0,0,0,.028-.766,1.71,1.71,0,0,0-.924-.593,2.43,2.43,0,0,0-.924-.163,4.765,4.765,0,0,0-2.419.616l-1.191.476-.023.42c-.028.5-.1.64-.406.775a.645.645,0,0,1-.677-.065c-.205-.145-.285-.346-.317-.78l-.023-.392-1.1-.439a5.113,5.113,0,0,0-2.26-.616A5.833,5.833,0,0,0,123.493-188.875Z" transform="translate(-116.396 203.985)" fill="#97a3b4"/>
</svg>
